0
SECTION
2
HEADER
9
$INSUNITS
70
1
0
ENDSEC
0
SECTION
2
TABLES
0
TABLE
2
LTYPE
0
LTYPE
72
65
70
64
2
CONTINUOUS
3
______
73
0
40
0
0
ENDTAB
0
TABLE
2
LAYER
0
ENDTAB
0
ENDSEC
0
SECTION
2
ENTITIES
0
LINE
8
front_outsideCutPath
10
0
20
2.125
11
0
21
1.427375
0
LINE
8
front_outsideCutPath
10
0
20
1.427375
11
0.118
21
1.427375
0
LINE
8
front_outsideCutPath
10
0.118
20
1.427375
11
0.118
21
0.822625
0
LINE
8
front_outsideCutPath
10
0.118
20
0.822625
11
0
21
0.822625
0
LINE
8
front_outsideCutPath
10
0
20
0.822625
11
0
21
0.217875
0
LINE
8
front_outsideCutPath
10
0
20
0.217875
11
0
21
0.125
0
LINE
8
front_outsideCutPath
10
0
20
0.125
11
0.488125
21
0.125
0
LINE
8
front_outsideCutPath
10
0.488125
20
0.125
11
0.488125
21
0.243
0
LINE
8
front_outsideCutPath
10
0.488125
20
0.243
11
1.092875
21
0.243
0
LINE
8
front_outsideCutPath
10
1.092875
20
0.243
11
1.092875
21
0.125
0
LINE
8
front_outsideCutPath
10
1.092875
20
0.125
11
1.697625
21
0.125
0
LINE
8
front_outsideCutPath
10
1.697625
20
0.125
11
1.697625
21
0.243
0
LINE
8
front_outsideCutPath
10
1.697625
20
0.243
11
2.302375
21
0.243
0
LINE
8
front_outsideCutPath
10
2.302375
20
0.243
11
2.302375
21
0.125
0
LINE
8
front_outsideCutPath
10
2.302375
20
0.125
11
2.907125
21
0.125
0
LINE
8
front_outsideCutPath
10
2.907125
20
0.125
11
2.907125
21
0.243
0
LINE
8
front_outsideCutPath
10
2.907125
20
0.243
11
3.511875
21
0.243
0
LINE
8
front_outsideCutPath
10
3.511875
20
0.243
11
3.511875
21
0.125
0
LINE
8
front_outsideCutPath
10
3.511875
20
0.125
11
4
21
0.125
0
LINE
8
front_outsideCutPath
10
4
20
0.125
11
4
21
0.822625
0
LINE
8
front_outsideCutPath
10
4
20
0.822625
11
3.882
21
0.822625
0
LINE
8
front_outsideCutPath
10
3.882
20
0.822625
11
3.882
21
1.427375
0
LINE
8
front_outsideCutPath
10
3.882
20
1.427375
11
4
21
1.427375
0
LINE
8
front_outsideCutPath
10
4
20
1.427375
11
4
21
2.032125
0
LINE
8
front_outsideCutPath
10
4
20
2.032125
11
4
21
2.125
0
LINE
8
front_outsideCutPath
10
4
20
2.125
11
3.511875
21
2.125
0
LINE
8
front_outsideCutPath
10
3.511875
20
2.125
11
3.511875
21
2.007
0
LINE
8
front_outsideCutPath
10
3.511875
20
2.007
11
2.907125
21
2.007
0
LINE
8
front_outsideCutPath
10
2.907125
20
2.007
11
2.907125
21
2.125
0
LINE
8
front_outsideCutPath
10
2.907125
20
2.125
11
2.302375
21
2.125
0
LINE
8
front_outsideCutPath
10
2.302375
20
2.125
11
2.302375
21
2.007
0
LINE
8
front_outsideCutPath
10
2.302375
20
2.007
11
1.697625
21
2.007
0
LINE
8
front_outsideCutPath
10
1.697625
20
2.007
11
1.697625
21
2.125
0
LINE
8
front_outsideCutPath
10
1.697625
20
2.125
11
1.092875
21
2.125
0
LINE
8
front_outsideCutPath
10
1.092875
20
2.125
11
1.092875
21
2.007
0
LINE
8
front_outsideCutPath
10
1.092875
20
2.007
11
0.488125
21
2.007
0
LINE
8
front_outsideCutPath
10
0.488125
20
2.007
11
0.488125
21
2.125
0
LINE
8
front_outsideCutPath
10
0.488125
20
2.125
11
0
21
2.125
0
LINE
8
front_labelLayer
10
1.6686523
20
1.1879925
11
1.6686523
21
1.1627972
0
LINE
8
front_labelLayer
10
1.6686523
20
1.1627972
11
1.6141601
21
1.1627972
0
LINE
8
front_labelLayer
10
1.6141601
20
1.1627972
11
1.6141601
21
0.97393
0
LINE
8
front_labelLayer
10
1.6141601
20
0.97393
11
1.5817383
21
0.97393
0
LINE
8
front_labelLayer
10
1.5817383
20
0.97393
11
1.5817383
21
1.1627972
0
LINE
8
front_labelLayer
10
1.5817383
20
1.1627972
11
1.543457
21
1.1627972
0
LINE
8
front_labelLayer
10
1.543457
20
1.1627972
11
1.543457
21
1.1774456
0
LINE
8
front_labelLayer
10
1.543457
20
1.1774456
11
1.5817383
21
1.1891643
0
LINE
8
front_labelLayer
10
1.5817383
20
1.1891643
11
1.5817383
21
1.2010784
0
LINE
8
front_labelLayer
10
1.6905273
20
1.2731487
11
1.6821289
21
1.2471722
0
LINE
8
front_labelLayer
10
1.6141601
20
1.2018597
11
1.6141601
21
1.1879925
0
LINE
8
front_labelLayer
10
1.6141601
20
1.1879925
11
1.6686523
21
1.1879925
0
ARC
8
front_labelLayer
10
1.7131371
20
1.2025882
40
0.1314075
50
167.5776536
51
180.6582919
0
ARC
8
front_labelLayer
10
1.6513418
20
1.2169952
40
0.0679643
50
141.7431422
51
168.2323149
0
ARC
8
front_labelLayer
10
1.6412817
20
1.2222463
40
0.0568523
50
98.254928
51
139.6205225
0
ARC
8
front_labelLayer
10
1.6501154
20
1.181446
40
0.0985404
50
89.6696083
51
99.9321107
0
ARC
8
front_labelLayer
10
1.6501415
20
1.1755988
40
0.1043873
50
81.5633697
51
89.7024789
0
ARC
8
front_labelLayer
10
1.6427927
20
1.1243395
40
0.1561702
50
75.9742954
51
81.6555474
0
ARC
8
front_labelLayer
10
1.6302746
20
1.0723824
40
0.2096128
50
73.2947695
51
76.0965396
0
ARC
8
front_labelLayer
10
1.6333515
20
1.0973851
40
0.1575291
50
71.9624209
51
76.5902877
0
ARC
8
front_labelLayer
10
1.6455892
20
1.149284
40
0.104207
50
76.5177479
51
83.0209857
0
ARC
8
front_labelLayer
10
1.6498454
20
1.1834941
40
0.0697332
50
83.0767913
51
89.7927439
0
ARC
8
front_labelLayer
10
1.6497054
20
1.2095001
40
0.0437285
50
89.4860408
51
103.4185793
0
ARC
8
front_labelLayer
10
1.6457631
20
1.2246495
40
0.0280796
50
102.7676269
51
144.3383146
0
ARC
8
front_labelLayer
10
1.6537014
20
1.2195409
40
0.0375106
50
145.067592
51
162.1806147
0
ARC
8
front_labelLayer
10
1.680958
20
1.2103728
40
0.0662662
50
161.8457269
51
171.782981
0
ARC
8
front_labelLayer
10
1.725302
20
1.2037115
40
0.1111073
50
171.6514139
51
178.4396382
0
ARC
8
front_labelLayer
10
1.7675149
20
1.2019155
40
0.1533548
50
178.1983308
51
180.0208536
0
LINE
8
front_labelLayer
10
1.830957
20
1.189555
11
1.8264648
21
1.1594768
0
LINE
8
front_labelLayer
10
1.7401367
20
1.0887737
11
1.7401367
21
0.97393
0
LINE
8
front_labelLayer
10
1.7401367
20
0.97393
11
1.7077148
21
0.97393
0
LINE
8
front_labelLayer
10
1.7077148
20
0.97393
11
1.7077148
21
1.1879925
0
LINE
8
front_labelLayer
10
1.7077148
20
1.1879925
11
1.7344726
21
1.1879925
0
LINE
8
front_labelLayer
10
1.7344726
20
1.1879925
11
1.7381836
21
1.148344
0
LINE
8
front_labelLayer
10
1.7381836
20
1.148344
11
1.7397461
21
1.148344
0
ARC
8
front_labelLayer
10
1.8057017
20
1.0430137
40
0.1488854
50
84.9928655
51
90.1272365
0
ARC
8
front_labelLayer
10
1.8092803
20
1.0831064
40
0.1086335
50
78.4899129
51
85.0274832
0
ARC
8
front_labelLayer
10
1.7954046
20
1.0200138
40
0.1428799
50
77.4443854
51
81.6353934
0
ARC
8
front_labelLayer
10
1.8016299
20
1.0629205
40
0.0995239
50
81.5878192
51
87.1914046
0
ARC
8
front_labelLayer
10
1.8029822
20
1.0862682
40
0.0761382
50
87.3469007
51
89.9660082
0
ARC
8
front_labelLayer
10
1.8026677
20
1.106231
40
0.0561767
50
89.633212
51
137.0884462
0
ARC
8
front_labelLayer
10
1.8164031
20
1.0907753
40
0.0767851
50
135.6199093
51
138.8397157
0
ARC
8
front_labelLayer
10
1.814434
20
1.0926984
40
0.0740371
50
138.9572456
51
174.5422555
0
ARC
8
front_labelLayer
10
1.8385345
20
1.0889254
40
0.098398
50
173.6899732
51
180.0883225
0
ARC
8
front_labelLayer
10
1.835142
20
1.0945973
40
0.1094947
50
139.4139552
51
150.6027987
0
ARC
8
front_labelLayer
10
1.8155104
20
1.1114189
40
0.083642
50
124.2328179
51
139.4157895
0
ARC
8
front_labelLayer
10
1.8050097
20
1.127267
40
0.0646326
50
89.6796276
51
124.4401836
0
ARC
8
front_labelLayer
10
1.8882917
20
1.0800284
40
0.1674738
50
349.1759766
51
0.3859435
0
ARC
8
front_labelLayer
10
1.9446773
20
1.0687874
40
0.1099815
50
330.2506036
51
349.4115498
0
ARC
8
front_labelLayer
10
1.9620379
20
1.0597618
40
0.0904338
50
318.1434308
51
329.7574593
0
ARC
8
front_labelLayer
10
1.9651614
20
1.0572586
40
0.0864372
50
278.8957336
51
317.9977466
0
ARC
8
front_labelLayer
10
1.9570927
20
1.0959194
40
0.1258967
50
269.7498124
51
279.8029106
0
ARC
8
front_labelLayer
10
1.9557828
20
1.0741342
40
0.1041132
50
253.541598
51
270.4183125
0
ARC
8
front_labelLayer
10
1.9523149
20
1.0607247
40
0.090272
50
238.8109875
51
253.2411664
0
ARC
8
front_labelLayer
10
1.9511986
20
1.0584813
40
0.087775
50
207.7950395
51
238.6759821
0
ARC
8
front_labelLayer
10
1.9672244
20
1.0682981
40
0.1065361
50
205.6555736
51
208.4464019
0
ARC
8
front_labelLayer
10
1.9796076
20
1.0734604
40
0.1199356
50
188.9098649
51
205.3173114
0
ARC
8
front_labelLayer
10
2.0212715
20
1.080517
40
0.1621906
50
179.7740663
51
189.0930445
0
ARC
8
front_labelLayer
10
2.0274194
20
1.0822968
40
0.1683412
50
169.2442527
51
180.388085
0
ARC
8
front_labelLayer
10
1.9702536
20
1.0935966
40
0.1100719
50
150.7113718
51
169.4695822
0
ARC
8
front_labelLayer
10
1.952002
20
1.102969
40
0.0895715
50
138.1757649
51
150.2286795
0
ARC
8
front_labelLayer
10
1.9489672
20
1.1052981
40
0.0857573
50
99.175979
51
137.9832858
0
ARC
8
front_labelLayer
10
1.9573224
20
1.0659787
40
0.1259214
50
89.7325871
51
100.0760905
0
ARC
8
front_labelLayer
10
1.958993
20
1.0829615
40
0.1089426
50
73.5220791
51
90.5695208
0
ARC
8
front_labelLayer
10
1.9653823
20
1.1061729
40
0.0848734
50
41.1441631
51
73.2136318
0
ARC
8
front_labelLayer
10
1.9531843
20
1.0956884
40
0.1009577
50
13.5016203
51
41.0701942
0
ARC
8
front_labelLayer
10
1.9060698
20
1.0833586
40
0.1496521
50
1.1276734
51
13.8802943
0
ARC
8
front_labelLayer
10
1.8651838
20
1.0811834
40
0.1905778
50
359.9919259
51
1.5396018
0
ARC
8
front_labelLayer
10
2.0568541
20
1.080314
40
0.1641805
50
179.7059533
51
187.916232
0
ARC
8
front_labelLayer
10
1.9966355
20
1.0716621
40
0.1033446
50
187.7633374
51
200.097646
0
ARC
8
front_labelLayer
10
1.9634686
20
1.0595098
40
0.0680214
50
200.0845607
51
216.9125271
0
ARC
8
front_labelLayer
10
1.9513527
20
1.0508595
40
0.0531399
50
217.3011703
51
261.7097209
0
ARC
8
front_labelLayer
10
1.9569772
20
1.0776941
40
0.0805228
50
260.5024687
51
270.2468821
0
ARC
8
front_labelLayer
10
1.9580488
20
1.072477
40
0.0753083
50
269.4486893
51
284.7259451
0
ARC
8
front_labelLayer
10
1.9640114
20
1.0503664
40
0.0524087
50
284.5659952
51
322.6332968
0
ARC
8
front_labelLayer
10
1.9500724
20
1.060436
40
0.0695997
50
323.0093111
51
342.6394859
0
ARC
8
front_labelLayer
10
1.9102056
20
1.0734662
40
0.1115399
50
342.3615719
51
353.7538372
0
ARC
8
front_labelLayer
10
1.8513685
20
1.0805578
40
0.1708005
50
353.5364709
51
0.2008633
0
ARC
8
front_labelLayer
10
1.8603835
20
1.0819821
40
0.1617865
50
359.7076176
51
7.8965616
0
ARC
8
front_labelLayer
10
1.9196431
20
1.090475
40
0.1019224
50
7.7442274
51
20.0691467
0
ARC
8
front_labelLayer
10
1.9526525
20
1.1025877
40
0.0667608
50
20.0263256
51
37.4341838
0
ARC
8
front_labelLayer
10
1.9636114
20
1.1103632
40
0.0533348
50
37.9576074
51
80.4006228
0
ARC
8
front_labelLayer
10
1.9573857
20
1.0825828
40
0.0817782
50
79.3455368
51
90.3168042
0
ARC
8
front_labelLayer
10
1.9562348
20
1.0872019
40
0.0771609
50
89.4811205
51
103.8809013
0
ARC
8
front_labelLayer
10
1.949751
20
1.1118912
40
0.0516387
50
103.4687874
51
142.3117896
0
ARC
8
front_labelLayer
10
1.9623545
20
1.1030274
40
0.067035
50
142.9023963
51
162.3749438
0
ARC
8
front_labelLayer
10
2.0020835
20
1.0897887
40
0.1089092
50
162.065709
51
173.1666032
0
ARC
8
front_labelLayer
10
2.0639885
20
1.0818948
40
0.1713143
50
173.0086608
51
180.2469003
0
LINE
8
front_labelLayer
10
2.2915039
20
0.97393
11
2.259082
21
0.97393
0
LINE
8
front_labelLayer
10
2.259082
20
0.97393
11
2.259082
21
1.1124065
0
LINE
8
front_labelLayer
10
2.1450195
20
1.0862347
11
2.1450195
21
0.97393
0
LINE
8
front_labelLayer
10
2.1450195
20
0.97393
11
2.1125976
21
0.97393
0
LINE
8
front_labelLayer
10
2.1125976
20
0.97393
11
2.1125976
21
1.1879925
0
LINE
8
front_labelLayer
10
2.1125976
20
1.1879925
11
2.1389648
21
1.1879925
0
LINE
8
front_labelLayer
10
2.1389648
20
1.1879925
11
2.1442383
21
1.1586956
0
LINE
8
front_labelLayer
10
2.1442383
20
1.1586956
11
2.1458008
21
1.1586956
0
LINE
8
front_labelLayer
10
2.2915039
20
1.1135784
11
2.2915039
21
0.97393
0
ARC
8
front_labelLayer
10
2.1674343
20
1.112931
40
0.0916493
50
359.672099
51
8.6883268
0
ARC
8
front_labelLayer
10
2.2014065
20
1.1183209
40
0.0572532
50
8.4920283
51
22.6579304
0
ARC
8
front_labelLayer
10
2.2186592
20
1.12549
40
0.0385701
50
22.7030453
51
42.3417715
0
ARC
8
front_labelLayer
10
2.2205997
20
1.1263629
40
0.0365539
50
43.379189
51
71.5380152
0
ARC
8
front_labelLayer
10
2.2133452
20
1.106092
40
0.0580807
50
71.0824267
51
84.3683014
0
ARC
8
front_labelLayer
10
2.2100917
20
1.0784322
40
0.0859277
50
84.0192881
51
90.1523112
0
ARC
8
front_labelLayer
10
2.2091668
20
1.0662306
40
0.0981315
50
89.593344
51
100.3712292
0
ARC
8
front_labelLayer
10
2.2022323
20
1.1026197
40
0.0610891
50
100.1178045
51
118.1605928
0
ARC
8
front_labelLayer
10
2.1952445
20
1.1163215
40
0.0457124
50
118.543875
51
139.1921921
0
ARC
8
front_labelLayer
10
2.2013383
20
1.1122329
40
0.0530043
50
140.1518717
51
160.314154
0
ARC
8
front_labelLayer
10
2.2381313
20
1.0984514
40
0.092291
50
159.9529584
51
171.3798327
0
ARC
8
front_labelLayer
10
2.2982057
20
1.0887923
40
0.1531354
50
171.1756065
51
178.3223608
0
ARC
8
front_labelLayer
10
2.3528296
20
1.0863146
40
0.2078102
50
178.080435
51
180.022042
0
ARC
8
front_labelLayer
10
2.2012641
20
1.1235685
40
0.0656513
50
116.9445866
51
147.6523482
0
ARC
8
front_labelLayer
10
2.208332
20
1.1116681
40
0.0794678
50
115.8117909
51
117.5994335
0
ARC
8
front_labelLayer
10
2.2115899
20
1.1039952
40
0.0877946
50
94.3225989
51
115.5455078
0
ARC
8
front_labelLayer
10
2.2136891
20
1.0857916
40
0.1061071
50
89.9565901
51
94.7120184
0
ARC
8
front_labelLayer
10
2.2145611
20
1.0638937
40
0.1280075
50
80.5590321
51
90.3542974
0
ARC
8
front_labelLayer
10
2.222561
20
1.1102335
40
0.0809835
50
65.1095951
51
80.7645147
0
ARC
8
front_labelLayer
10
2.231908
20
1.1309396
40
0.0582669
50
46.5592065
51
64.8774329
0
ARC
8
front_labelLayer
10
2.2326602
20
1.1331019
40
0.0561876
50
19.3845757
51
45.59991
0
ARC
8
front_labelLayer
10
2.2001461
20
1.1209027
40
0.0909104
50
6.9638029
51
19.8358684
0
ARC
8
front_labelLayer
10
2.1500105
20
1.1141618
40
0.1414948
50
359.7637653
51
7.2118597
0
LINE
8
front_labelLayer
10
2.456543
20
1.0006878
11
2.456543
21
0.9758831
0
LINE
8
front_labelLayer
10
2.3604492
20
1.0354534
11
2.3604492
21
1.1627972
0
LINE
8
front_labelLayer
10
2.3604492
20
1.1627972
11
2.3297851
21
1.1627972
0
LINE
8
front_labelLayer
10
2.3297851
20
1.1627972
11
2.3297851
21
1.1784222
0
LINE
8
front_labelLayer
10
2.3297851
20
1.1784222
11
2.3604492
21
1.1918987
0
LINE
8
front_labelLayer
10
2.3604492
20
1.1918987
11
2.3741211
21
1.2376018
0
LINE
8
front_labelLayer
10
2.3741211
20
1.2376018
11
2.3928711
21
1.2376018
0
LINE
8
front_labelLayer
10
2.3928711
20
1.2376018
11
2.3928711
21
1.1879925
0
LINE
8
front_labelLayer
10
2.3928711
20
1.1879925
11
2.4549805
21
1.1879925
0
LINE
8
front_labelLayer
10
2.4549805
20
1.1879925
11
2.4549805
21
1.1627972
0
LINE
8
front_labelLayer
10
2.4549805
20
1.1627972
11
2.3928711
21
1.1627972
0
LINE
8
front_labelLayer
10
2.3928711
20
1.1627972
11
2.3928711
21
1.0368206
0
ARC
8
front_labelLayer
10
2.427467
20
1.1032781
40
0.1064968
50
269.881121
51
278.3020978
0
ARC
8
front_labelLayer
10
2.4291643
20
1.090478
40
0.0935859
50
278.4054245
51
279.026822
0
ARC
8
front_labelLayer
10
2.4163928
20
1.172125
40
0.1762258
50
278.9628177
51
280.5068977
0
ARC
8
front_labelLayer
10
2.4279917
20
1.1098664
40
0.112896
50
280.4808493
51
282.6295187
0
ARC
8
front_labelLayer
10
2.4379152
20
1.0658101
40
0.0677358
50
282.5866869
51
285.5800748
0
ARC
8
front_labelLayer
10
2.4438377
20
1.0442226
40
0.045351
50
285.6978323
51
286.2694347
0
ARC
8
front_labelLayer
10
2.4429196
20
1.0046969
40
0.0318721
50
287.9849695
51
295.3051367
0
ARC
8
front_labelLayer
10
2.4352231
20
1.0279776
40
0.056392
50
283.3056658
51
288.1191315
0
ARC
8
front_labelLayer
10
2.4270985
20
1.0618646
40
0.0912393
50
280.0061995
51
283.373233
0
ARC
8
front_labelLayer
10
2.4214377
20
1.09269
40
0.1225796
50
279.1903934
51
280.1083759
0
ARC
8
front_labelLayer
10
2.4183239
20
1.1103419
40
0.1405026
50
275.5256702
51
279.2941769
0
ARC
8
front_labelLayer
10
2.4220762
20
1.071183
40
0.1011643
50
270.8954186
51
275.5460028
0
ARC
8
front_labelLayer
10
2.4225539
20
1.0545444
40
0.0845206
50
270.0031369
51
270.7478361
0
ARC
8
front_labelLayer
10
2.4212497
20
1.0546894
40
0.0846758
50
253.7841298
51
270.8856899
0
ARC
8
front_labelLayer
10
2.411218
20
1.0204804
40
0.0490265
50
190.3818776
51
253.8770115
0
ARC
8
front_labelLayer
10
2.4623445
20
1.0343057
40
0.1019018
50
179.354645
51
192.8484566
0
ARC
8
front_labelLayer
10
2.458147
20
1.0364113
40
0.0652772
50
179.6407338
51
189.7511717
0
ARC
8
front_labelLayer
10
2.4351052
20
1.0323004
40
0.0418723
50
189.547359
51
205.7883411
0
ARC
8
front_labelLayer
10
2.4256403
20
1.027936
40
0.0314519
50
206.13087
51
221.4081413
0
ARC
8
front_labelLayer
10
2.424576
20
1.0271288
40
0.03012
50
221.5956481
51
262.3500319
0
ARC
8
front_labelLayer
10
2.4271001
20
1.0400932
40
0.043312
50
261.3236147
51
270.1930865
0
LINE
8
left_outsideCutPath
10
4.243
20
2.125
11
4.243
21
1.427375
0
LINE
8
left_outsideCutPath
10
4.243
20
1.427375
11
4.125
21
1.427375
0
LINE
8
left_outsideCutPath
10
4.125
20
1.427375
11
4.125
21
0.822625
0
LINE
8
left_outsideCutPath
10
4.125
20
0.822625
11
4.243
21
0.822625
0
LINE
8
left_outsideCutPath
10
4.243
20
0.822625
11
4.243
21
0.217875
0
LINE
8
left_outsideCutPath
10
4.243
20
0.217875
11
4.243
21
0.125
0
LINE
8
left_outsideCutPath
10
4.243
20
0.125
11
4.984625
21
0.125
0
LINE
8
left_outsideCutPath
10
4.984625
20
0.125
11
4.984625
21
0.243
0
LINE
8
left_outsideCutPath
10
4.984625
20
0.243
11
5.589375
21
0.243
0
LINE
8
left_outsideCutPath
10
5.589375
20
0.243
11
5.589375
21
0.125
0
LINE
8
left_outsideCutPath
10
5.589375
20
0.125
11
6.194125
21
0.125
0
LINE
8
left_outsideCutPath
10
6.194125
20
0.125
11
6.194125
21
0.243
0
LINE
8
left_outsideCutPath
10
6.194125
20
0.243
11
6.798875
21
0.243
0
LINE
8
left_outsideCutPath
10
6.798875
20
0.243
11
6.798875
21
0.125
0
LINE
8
left_outsideCutPath
10
6.798875
20
0.125
11
7.403625
21
0.125
0
LINE
8
left_outsideCutPath
10
7.403625
20
0.125
11
7.403625
21
0.243
0
LINE
8
left_outsideCutPath
10
7.403625
20
0.243
11
8.008375
21
0.243
0
LINE
8
left_outsideCutPath
10
8.008375
20
0.243
11
8.008375
21
0.125
0
LINE
8
left_outsideCutPath
10
8.008375
20
0.125
11
8.613125
21
0.125
0
LINE
8
left_outsideCutPath
10
8.613125
20
0.125
11
8.613125
21
0.243
0
LINE
8
left_outsideCutPath
10
8.613125
20
0.243
11
9.217875
21
0.243
0
LINE
8
left_outsideCutPath
10
9.217875
20
0.243
11
9.217875
21
0.125
0
LINE
8
left_outsideCutPath
10
9.217875
20
0.125
11
9.822625
21
0.125
0
LINE
8
left_outsideCutPath
10
9.822625
20
0.125
11
9.822625
21
0.243
0
LINE
8
left_outsideCutPath
10
9.822625
20
0.243
11
10.427375
21
0.243
0
LINE
8
left_outsideCutPath
10
10.427375
20
0.243
11
10.427375
21
0.125
0
LINE
8
left_outsideCutPath
10
10.427375
20
0.125
11
11.032125
21
0.125
0
LINE
8
left_outsideCutPath
10
11.032125
20
0.125
11
11.032125
21
0.243
0
LINE
8
left_outsideCutPath
10
11.032125
20
0.243
11
11.636875
21
0.243
0
LINE
8
left_outsideCutPath
10
11.636875
20
0.243
11
11.636875
21
0.125
0
LINE
8
left_outsideCutPath
10
11.636875
20
0.125
11
12.241625
21
0.125
0
LINE
8
left_outsideCutPath
10
12.241625
20
0.125
11
12.241625
21
0.243
0
LINE
8
left_outsideCutPath
10
12.241625
20
0.243
11
12.846375
21
0.243
0
LINE
8
left_outsideCutPath
10
12.846375
20
0.243
11
12.846375
21
0.125
0
LINE
8
left_outsideCutPath
10
12.846375
20
0.125
11
13.451125
21
0.125
0
LINE
8
left_outsideCutPath
10
13.451125
20
0.125
11
13.451125
21
0.243
0
LINE
8
left_outsideCutPath
10
13.451125
20
0.243
11
14.055875
21
0.243
0
LINE
8
left_outsideCutPath
10
14.055875
20
0.243
11
14.055875
21
0.125
0
LINE
8
left_outsideCutPath
10
14.055875
20
0.125
11
14.660625
21
0.125
0
LINE
8
left_outsideCutPath
10
14.660625
20
0.125
11
14.660625
21
0.243
0
LINE
8
left_outsideCutPath
10
14.660625
20
0.243
11
15.265375
21
0.243
0
LINE
8
left_outsideCutPath
10
15.265375
20
0.243
11
15.265375
21
0.125
0
LINE
8
left_outsideCutPath
10
15.265375
20
0.125
11
16.007
21
0.125
0
LINE
8
left_outsideCutPath
10
16.007
20
0.125
11
16.007
21
0.822625
0
LINE
8
left_outsideCutPath
10
16.007
20
0.822625
11
16.125
21
0.822625
0
LINE
8
left_outsideCutPath
10
16.125
20
0.822625
11
16.125
21
1.427375
0
LINE
8
left_outsideCutPath
10
16.125
20
1.427375
11
16.007
21
1.427375
0
LINE
8
left_outsideCutPath
10
16.007
20
1.427375
11
16.007
21
2.032125
0
LINE
8
left_outsideCutPath
10
16.007
20
2.032125
11
16.007
21
2.125
0
LINE
8
left_outsideCutPath
10
16.007
20
2.125
11
15.265375
21
2.125
0
LINE
8
left_outsideCutPath
10
15.265375
20
2.125
11
15.265375
21
2.007
0
LINE
8
left_outsideCutPath
10
15.265375
20
2.007
11
14.660625
21
2.007
0
LINE
8
left_outsideCutPath
10
14.660625
20
2.007
11
14.660625
21
2.125
0
LINE
8
left_outsideCutPath
10
14.660625
20
2.125
11
14.055875
21
2.125
0
LINE
8
left_outsideCutPath
10
14.055875
20
2.125
11
14.055875
21
2.007
0
LINE
8
left_outsideCutPath
10
14.055875
20
2.007
11
13.451125
21
2.007
0
LINE
8
left_outsideCutPath
10
13.451125
20
2.007
11
13.451125
21
2.125
0
LINE
8
left_outsideCutPath
10
13.451125
20
2.125
11
12.846375
21
2.125
0
LINE
8
left_outsideCutPath
10
12.846375
20
2.125
11
12.846375
21
2.007
0
LINE
8
left_outsideCutPath
10
12.846375
20
2.007
11
12.241625
21
2.007
0
LINE
8
left_outsideCutPath
10
12.241625
20
2.007
11
12.241625
21
2.125
0
LINE
8
left_outsideCutPath
10
12.241625
20
2.125
11
11.636875
21
2.125
0
LINE
8
left_outsideCutPath
10
11.636875
20
2.125
11
11.636875
21
2.007
0
LINE
8
left_outsideCutPath
10
11.636875
20
2.007
11
11.032125
21
2.007
0
LINE
8
left_outsideCutPath
10
11.032125
20
2.007
11
11.032125
21
2.125
0
LINE
8
left_outsideCutPath
10
11.032125
20
2.125
11
10.427375
21
2.125
0
LINE
8
left_outsideCutPath
10
10.427375
20
2.125
11
10.427375
21
2.007
0
LINE
8
left_outsideCutPath
10
10.427375
20
2.007
11
9.822625
21
2.007
0
LINE
8
left_outsideCutPath
10
9.822625
20
2.007
11
9.822625
21
2.125
0
LINE
8
left_outsideCutPath
10
9.822625
20
2.125
11
9.217875
21
2.125
0
LINE
8
left_outsideCutPath
10
9.217875
20
2.125
11
9.217875
21
2.007
0
LINE
8
left_outsideCutPath
10
9.217875
20
2.007
11
8.613125
21
2.007
0
LINE
8
left_outsideCutPath
10
8.613125
20
2.007
11
8.613125
21
2.125
0
LINE
8
left_outsideCutPath
10
8.613125
20
2.125
11
8.008375
21
2.125
0
LINE
8
left_outsideCutPath
10
8.008375
20
2.125
11
8.008375
21
2.007
0
LINE
8
left_outsideCutPath
10
8.008375
20
2.007
11
7.403625
21
2.007
0
LINE
8
left_outsideCutPath
10
7.403625
20
2.007
11
7.403625
21
2.125
0
LINE
8
left_outsideCutPath
10
7.403625
20
2.125
11
6.798875
21
2.125
0
LINE
8
left_outsideCutPath
10
6.798875
20
2.125
11
6.798875
21
2.007
0
LINE
8
left_outsideCutPath
10
6.798875
20
2.007
11
6.194125
21
2.007
0
LINE
8
left_outsideCutPath
10
6.194125
20
2.007
11
6.194125
21
2.125
0
LINE
8
left_outsideCutPath
10
6.194125
20
2.125
11
5.589375
21
2.125
0
LINE
8
left_outsideCutPath
10
5.589375
20
2.125
11
5.589375
21
2.007
0
LINE
8
left_outsideCutPath
10
5.589375
20
2.007
11
4.984625
21
2.007
0
LINE
8
left_outsideCutPath
10
4.984625
20
2.007
11
4.984625
21
2.125
0
LINE
8
left_outsideCutPath
10
4.984625
20
2.125
11
4.243
21
2.125
0
LINE
8
left_labelLayer
10
9.8776367
20
1.2778362
11
9.8776367
21
0.97393
0
LINE
8
left_labelLayer
10
9.8776367
20
0.97393
11
9.8452148
21
0.97393
0
LINE
8
left_labelLayer
10
9.8452148
20
0.97393
11
9.8452148
21
1.2778362
0
LINE
8
left_labelLayer
10
9.8452148
20
1.2778362
11
9.8776367
21
1.2778362
0
LINE
8
left_labelLayer
10
10.1155273
20
1.0956097
11
10.1155273
21
1.0751018
0
LINE
8
left_labelLayer
10
10.1155273
20
1.0751018
11
9.9680664
21
1.0751018
0
LINE
8
left_labelLayer
10
10.1063476
20
1.0127972
11
10.1063476
21
0.9838909
0
LINE
8
left_labelLayer
10
9.9688476
20
1.101469
11
10.0807617
21
1.101469
0
ARC
8
left_labelLayer
10
10.0357512
20
1.0960116
40
0.1259924
50
256.0086909
51
270.4844206
0
ARC
8
left_labelLayer
10
10.0265767
20
1.060393
40
0.089213
50
223.5467922
51
256.19532
0
ARC
8
left_labelLayer
10
10.0316354
20
1.0640694
40
0.095416
50
194.0874865
51
223.0541011
0
ARC
8
left_labelLayer
10
10.0780155
20
1.0767519
40
0.1434918
50
181.35745
51
194.4915829
0
ARC
8
left_labelLayer
10
10.1198632
20
1.079167
40
0.1853904
50
179.9887618
51
181.7972778
0
ARC
8
left_labelLayer
10
10.1047275
20
1.0803445
40
0.1702587
50
168.9544004
51
180.3840007
0
ARC
8
left_labelLayer
10
10.0491074
20
1.0916693
40
0.1135001
50
149.4065165
51
169.1859546
0
ARC
8
left_labelLayer
10
10.0336313
20
1.0998456
40
0.0960206
50
140.1061989
51
148.9062905
0
ARC
8
left_labelLayer
10
10.0241045
20
1.1086269
40
0.0830817
50
92.4762585
51
140.5387618
0
ARC
8
left_labelLayer
10
10.0283483
20
1.07721
40
0.1146887
50
89.9651956
51
93.9163994
0
ARC
8
left_labelLayer
10
10.0293575
20
1.0931252
40
0.098778
50
74.2127302
51
90.5449919
0
ARC
8
left_labelLayer
10
10.0355435
20
1.1159194
40
0.075161
50
41.2068364
51
74.0230079
0
ARC
8
left_labelLayer
10
10.0238273
20
1.1057811
40
0.0906544
50
11.5992834
51
41.1493445
0
ARC
8
left_labelLayer
10
9.9835723
20
1.096497
40
0.131958
50
359.6147342
51
12.0337597
0
ARC
8
left_labelLayer
10
10.0981785
20
1.0777019
40
0.1301381
50
181.1448098
51
190.8001679
0
ARC
8
left_labelLayer
10
10.0522638
20
1.0686477
40
0.0833405
50
190.6006872
51
206.027216
0
ARC
8
left_labelLayer
10
10.0319546
20
1.0590474
40
0.060879
50
206.295398
51
222.5548135
0
ARC
8
left_labelLayer
10
10.0301506
20
1.0581028
40
0.0589134
50
223.06465
51
258.1401103
0
ARC
8
left_labelLayer
10
10.0373162
20
1.0876057
40
0.0892644
50
257.5308166
51
270.4313885
0
ARC
8
left_labelLayer
10
10.0373948
20
1.1695821
40
0.171239
50
270.1985542
51
292.2090275
0
ARC
8
left_labelLayer
10
10.0291751
20
1.1931928
40
0.1962096
50
291.8251345
51
293.1610412
0
ARC
8
left_labelLayer
10
10.0287851
20
1.1623898
40
0.1946222
50
287.9018636
51
293.4862274
0
ARC
8
left_labelLayer
10
10.0429059
20
1.1188157
40
0.1488173
50
281.9926638
51
287.885328
0
ARC
8
left_labelLayer
10
10.0463112
20
1.106596
40
0.1361591
50
275.9067245
51
281.6594295
0
ARC
8
left_labelLayer
10
10.0394741
20
1.1704066
40
0.2003346
50
271.9113598
51
275.9736711
0
ARC
8
left_labelLayer
10
10.0369633
20
1.234446
40
0.2644223
50
269.9681634
51
271.9922843
0
ARC
8
left_labelLayer
10
10.0274058
20
1.1008364
40
0.0639169
50
89.442882
51
106.208067
0
ARC
8
left_labelLayer
10
10.0235605
20
1.1148609
40
0.049377
50
106.4657738
51
137.9172806
0
ARC
8
left_labelLayer
10
10.0345857
20
1.1051798
40
0.0640482
50
138.0998473
51
160.5862354
0
ARC
8
left_labelLayer
10
10.0629063
20
1.0947597
40
0.0942229
50
160.3343569
51
172.5323532
0
ARC
8
left_labelLayer
10
10.0910244
20
1.0902606
40
0.1226899
50
172.1556745
51
174.7583802
0
ARC
8
left_labelLayer
10
9.9702873
20
1.1020967
40
0.1104762
50
359.6744835
51
8.922919
0
ARC
8
left_labelLayer
10
10.0097621
20
1.1085291
40
0.0704819
50
8.7345007
51
23.2780722
0
ARC
8
left_labelLayer
10
10.0285008
20
1.116396
40
0.0501601
50
23.4823552
51
39.7073818
0
ARC
8
left_labelLayer
10
10.0331046
20
1.1198419
40
0.0444178
50
40.0818395
51
80.6245181
0
ARC
8
left_labelLayer
10
10.0283657
20
1.0981203
40
0.0666309
50
79.6466872
51
90.2909788
0
LINE
8
left_labelLayer
10
10.2672851
20
1.1879925
11
10.2672851
21
1.1627972
0
LINE
8
left_labelLayer
10
10.2672851
20
1.1627972
11
10.212793
21
1.1627972
0
LINE
8
left_labelLayer
10
10.212793
20
1.1627972
11
10.212793
21
0.97393
0
LINE
8
left_labelLayer
10
10.212793
20
0.97393
11
10.1803711
21
0.97393
0
LINE
8
left_labelLayer
10
10.1803711
20
0.97393
11
10.1803711
21
1.1627972
0
LINE
8
left_labelLayer
10
10.1803711
20
1.1627972
11
10.1420898
21
1.1627972
0
LINE
8
left_labelLayer
10
10.1420898
20
1.1627972
11
10.1420898
21
1.1774456
0
LINE
8
left_labelLayer
10
10.1420898
20
1.1774456
11
10.1803711
21
1.1891643
0
LINE
8
left_labelLayer
10
10.1803711
20
1.1891643
11
10.1803711
21
1.2010784
0
LINE
8
left_labelLayer
10
10.2891601
20
1.2731487
11
10.2807617
21
1.2471722
0
LINE
8
left_labelLayer
10
10.212793
20
1.2018597
11
10.212793
21
1.1879925
0
LINE
8
left_labelLayer
10
10.212793
20
1.1879925
11
10.2672851
21
1.1879925
0
ARC
8
left_labelLayer
10
10.3117699
20
1.2025882
40
0.1314075
50
167.5776536
51
180.6582919
0
ARC
8
left_labelLayer
10
10.2499746
20
1.2169952
40
0.0679643
50
141.7431422
51
168.2323149
0
ARC
8
left_labelLayer
10
10.2399145
20
1.2222463
40
0.0568523
50
98.254928
51
139.6205225
0
ARC
8
left_labelLayer
10
10.2487482
20
1.181446
40
0.0985404
50
89.6696083
51
99.9321107
0
ARC
8
left_labelLayer
10
10.2487743
20
1.1755988
40
0.1043873
50
81.5633697
51
89.7024789
0
ARC
8
left_labelLayer
10
10.2414255
20
1.1243395
40
0.1561702
50
75.9742954
51
81.6555474
0
ARC
8
left_labelLayer
10
10.2289074
20
1.0723824
40
0.2096128
50
73.2947695
51
76.0965396
0
ARC
8
left_labelLayer
10
10.2319843
20
1.0973851
40
0.1575291
50
71.9624209
51
76.5902877
0
ARC
8
left_labelLayer
10
10.244222
20
1.149284
40
0.104207
50
76.5177479
51
83.0209857
0
ARC
8
left_labelLayer
10
10.2484782
20
1.1834941
40
0.0697332
50
83.0767913
51
89.7927439
0
ARC
8
left_labelLayer
10
10.2483382
20
1.2095001
40
0.0437285
50
89.4860408
51
103.4185793
0
ARC
8
left_labelLayer
10
10.244396
20
1.2246495
40
0.0280796
50
102.7676269
51
144.3383146
0
ARC
8
left_labelLayer
10
10.2523342
20
1.2195409
40
0.0375106
50
145.067592
51
162.1806147
0
ARC
8
left_labelLayer
10
10.2795908
20
1.2103728
40
0.0662662
50
161.8457269
51
171.782981
0
ARC
8
left_labelLayer
10
10.3239348
20
1.2037115
40
0.1111073
50
171.6514139
51
178.4396382
0
ARC
8
left_labelLayer
10
10.3661477
20
1.2019155
40
0.1533548
50
178.1983308
51
180.0208536
0
LINE
8
left_labelLayer
10
10.4047851
20
1.0006878
11
10.4047851
21
0.9758831
0
LINE
8
left_labelLayer
10
10.3086914
20
1.0354534
11
10.3086914
21
1.1627972
0
LINE
8
left_labelLayer
10
10.3086914
20
1.1627972
11
10.2780273
21
1.1627972
0
LINE
8
left_labelLayer
10
10.2780273
20
1.1627972
11
10.2780273
21
1.1784222
0
LINE
8
left_labelLayer
10
10.2780273
20
1.1784222
11
10.3086914
21
1.1918987
0
LINE
8
left_labelLayer
10
10.3086914
20
1.1918987
11
10.3223633
21
1.2376018
0
LINE
8
left_labelLayer
10
10.3223633
20
1.2376018
11
10.3411133
21
1.2376018
0
LINE
8
left_labelLayer
10
10.3411133
20
1.2376018
11
10.3411133
21
1.1879925
0
LINE
8
left_labelLayer
10
10.3411133
20
1.1879925
11
10.4032226
21
1.1879925
0
LINE
8
left_labelLayer
10
10.4032226
20
1.1879925
11
10.4032226
21
1.1627972
0
LINE
8
left_labelLayer
10
10.4032226
20
1.1627972
11
10.3411133
21
1.1627972
0
LINE
8
left_labelLayer
10
10.3411133
20
1.1627972
11
10.3411133
21
1.0368206
0
ARC
8
left_labelLayer
10
10.3757092
20
1.1032781
40
0.1064968
50
269.881121
51
278.3020978
0
ARC
8
left_labelLayer
10
10.3774065
20
1.090478
40
0.0935859
50
278.4054245
51
279.026822
0
ARC
8
left_labelLayer
10
10.364635
20
1.172125
40
0.1762258
50
278.9628177
51
280.5068977
0
ARC
8
left_labelLayer
10
10.3762339
20
1.1098664
40
0.112896
50
280.4808493
51
282.6295187
0
ARC
8
left_labelLayer
10
10.3861574
20
1.0658101
40
0.0677358
50
282.5866869
51
285.5800748
0
ARC
8
left_labelLayer
10
10.3920799
20
1.0442226
40
0.045351
50
285.6978323
51
286.2694347
0
ARC
8
left_labelLayer
10
10.3911618
20
1.0046969
40
0.0318721
50
287.9849695
51
295.3051367
0
ARC
8
left_labelLayer
10
10.3834653
20
1.0279776
40
0.056392
50
283.3056658
51
288.1191315
0
ARC
8
left_labelLayer
10
10.3753407
20
1.0618646
40
0.0912393
50
280.0061995
51
283.373233
0
ARC
8
left_labelLayer
10
10.3696799
20
1.09269
40
0.1225796
50
279.1903934
51
280.1083759
0
ARC
8
left_labelLayer
10
10.3665661
20
1.1103419
40
0.1405026
50
275.5256702
51
279.2941769
0
ARC
8
left_labelLayer
10
10.3703184
20
1.071183
40
0.1011643
50
270.8954186
51
275.5460028
0
ARC
8
left_labelLayer
10
10.3707961
20
1.0545444
40
0.0845206
50
270.0031369
51
270.7478361
0
ARC
8
left_labelLayer
10
10.3694919
20
1.0546894
40
0.0846758
50
253.7841298
51
270.8856899
0
ARC
8
left_labelLayer
10
10.3594602
20
1.0204804
40
0.0490265
50
190.3818776
51
253.8770115
0
ARC
8
left_labelLayer
10
10.4105867
20
1.0343057
40
0.1019018
50
179.354645
51
192.8484566
0
ARC
8
left_labelLayer
10
10.4063892
20
1.0364113
40
0.0652772
50
179.6407338
51
189.7511717
0
ARC
8
left_labelLayer
10
10.3833474
20
1.0323004
40
0.0418723
50
189.547359
51
205.7883411
0
ARC
8
left_labelLayer
10
10.3738825
20
1.027936
40
0.0314519
50
206.13087
51
221.4081413
0
ARC
8
left_labelLayer
10
10.3728181
20
1.0271288
40
0.03012
50
221.5956481
51
262.3500319
0
ARC
8
left_labelLayer
10
10.3753423
20
1.0400932
40
0.043312
50
261.3236147
51
270.1930865
0
LINE
8
top_outsideCutPath
10
16.368
20
12.007
11
16.368
21
11.265375
0
LINE
8
top_outsideCutPath
10
16.368
20
11.265375
11
16.25
21
11.265375
0
LINE
8
top_outsideCutPath
10
16.25
20
11.265375
11
16.25
21
10.660625
0
LINE
8
top_outsideCutPath
10
16.25
20
10.660625
11
16.368
21
10.660625
0
LINE
8
top_outsideCutPath
10
16.368
20
10.660625
11
16.368
21
10.055875
0
LINE
8
top_outsideCutPath
10
16.368
20
10.055875
11
16.25
21
10.055875
0
LINE
8
top_outsideCutPath
10
16.25
20
10.055875
11
16.25
21
9.451125
0
LINE
8
top_outsideCutPath
10
16.25
20
9.451125
11
16.368
21
9.451125
0
LINE
8
top_outsideCutPath
10
16.368
20
9.451125
11
16.368
21
8.846375
0
LINE
8
top_outsideCutPath
10
16.368
20
8.846375
11
16.25
21
8.846375
0
LINE
8
top_outsideCutPath
10
16.25
20
8.846375
11
16.25
21
8.241625
0
LINE
8
top_outsideCutPath
10
16.25
20
8.241625
11
16.368
21
8.241625
0
LINE
8
top_outsideCutPath
10
16.368
20
8.241625
11
16.368
21
7.636875
0
LINE
8
top_outsideCutPath
10
16.368
20
7.636875
11
16.25
21
7.636875
0
LINE
8
top_outsideCutPath
10
16.25
20
7.636875
11
16.25
21
7.032125
0
LINE
8
top_outsideCutPath
10
16.25
20
7.032125
11
16.368
21
7.032125
0
LINE
8
top_outsideCutPath
10
16.368
20
7.032125
11
16.368
21
6.427375
0
LINE
8
top_outsideCutPath
10
16.368
20
6.427375
11
16.25
21
6.427375
0
LINE
8
top_outsideCutPath
10
16.25
20
6.427375
11
16.25
21
5.822625
0
LINE
8
top_outsideCutPath
10
16.25
20
5.822625
11
16.368
21
5.822625
0
LINE
8
top_outsideCutPath
10
16.368
20
5.822625
11
16.368
21
5.217875
0
LINE
8
top_outsideCutPath
10
16.368
20
5.217875
11
16.25
21
5.217875
0
LINE
8
top_outsideCutPath
10
16.25
20
5.217875
11
16.25
21
4.613125
0
LINE
8
top_outsideCutPath
10
16.25
20
4.613125
11
16.368
21
4.613125
0
LINE
8
top_outsideCutPath
10
16.368
20
4.613125
11
16.368
21
4.008375
0
LINE
8
top_outsideCutPath
10
16.368
20
4.008375
11
16.25
21
4.008375
0
LINE
8
top_outsideCutPath
10
16.25
20
4.008375
11
16.25
21
3.403625
0
LINE
8
top_outsideCutPath
10
16.25
20
3.403625
11
16.368
21
3.403625
0
LINE
8
top_outsideCutPath
10
16.368
20
3.403625
11
16.368
21
2.798875
0
LINE
8
top_outsideCutPath
10
16.368
20
2.798875
11
16.25
21
2.798875
0
LINE
8
top_outsideCutPath
10
16.25
20
2.798875
11
16.25
21
2.194125
0
LINE
8
top_outsideCutPath
10
16.25
20
2.194125
11
16.368
21
2.194125
0
LINE
8
top_outsideCutPath
10
16.368
20
2.194125
11
16.368
21
1.589375
0
LINE
8
top_outsideCutPath
10
16.368
20
1.589375
11
16.25
21
1.589375
0
LINE
8
top_outsideCutPath
10
16.25
20
1.589375
11
16.25
21
0.984625
0
LINE
8
top_outsideCutPath
10
16.25
20
0.984625
11
16.368
21
0.984625
0
LINE
8
top_outsideCutPath
10
16.368
20
0.984625
11
16.368
21
0.243
0
LINE
8
top_outsideCutPath
10
16.368
20
0.243
11
16.738125
21
0.243
0
LINE
8
top_outsideCutPath
10
16.738125
20
0.243
11
16.738125
21
0.125
0
LINE
8
top_outsideCutPath
10
16.738125
20
0.125
11
17.342875
21
0.125
0
LINE
8
top_outsideCutPath
10
17.342875
20
0.125
11
17.342875
21
0.243
0
LINE
8
top_outsideCutPath
10
17.342875
20
0.243
11
17.947625
21
0.243
0
LINE
8
top_outsideCutPath
10
17.947625
20
0.243
11
17.947625
21
0.125
0
LINE
8
top_outsideCutPath
10
17.947625
20
0.125
11
18.552375
21
0.125
0
LINE
8
top_outsideCutPath
10
18.552375
20
0.125
11
18.552375
21
0.243
0
LINE
8
top_outsideCutPath
10
18.552375
20
0.243
11
19.157125
21
0.243
0
LINE
8
top_outsideCutPath
10
19.157125
20
0.243
11
19.157125
21
0.125
0
LINE
8
top_outsideCutPath
10
19.157125
20
0.125
11
19.761875
21
0.125
0
LINE
8
top_outsideCutPath
10
19.761875
20
0.125
11
19.761875
21
0.243
0
LINE
8
top_outsideCutPath
10
19.761875
20
0.243
11
20.132
21
0.243
0
LINE
8
top_outsideCutPath
10
20.132
20
0.243
11
20.132
21
0.984625
0
LINE
8
top_outsideCutPath
10
20.132
20
0.984625
11
20.25
21
0.984625
0
LINE
8
top_outsideCutPath
10
20.25
20
0.984625
11
20.25
21
1.589375
0
LINE
8
top_outsideCutPath
10
20.25
20
1.589375
11
20.132
21
1.589375
0
LINE
8
top_outsideCutPath
10
20.132
20
1.589375
11
20.132
21
2.194125
0
LINE
8
top_outsideCutPath
10
20.132
20
2.194125
11
20.25
21
2.194125
0
LINE
8
top_outsideCutPath
10
20.25
20
2.194125
11
20.25
21
2.798875
0
LINE
8
top_outsideCutPath
10
20.25
20
2.798875
11
20.132
21
2.798875
0
LINE
8
top_outsideCutPath
10
20.132
20
2.798875
11
20.132
21
3.403625
0
LINE
8
top_outsideCutPath
10
20.132
20
3.403625
11
20.25
21
3.403625
0
LINE
8
top_outsideCutPath
10
20.25
20
3.403625
11
20.25
21
4.008375
0
LINE
8
top_outsideCutPath
10
20.25
20
4.008375
11
20.132
21
4.008375
0
LINE
8
top_outsideCutPath
10
20.132
20
4.008375
11
20.132
21
4.613125
0
LINE
8
top_outsideCutPath
10
20.132
20
4.613125
11
20.25
21
4.613125
0
LINE
8
top_outsideCutPath
10
20.25
20
4.613125
11
20.25
21
5.217875
0
LINE
8
top_outsideCutPath
10
20.25
20
5.217875
11
20.132
21
5.217875
0
LINE
8
top_outsideCutPath
10
20.132
20
5.217875
11
20.132
21
5.822625
0
LINE
8
top_outsideCutPath
10
20.132
20
5.822625
11
20.25
21
5.822625
0
LINE
8
top_outsideCutPath
10
20.25
20
5.822625
11
20.25
21
6.427375
0
LINE
8
top_outsideCutPath
10
20.25
20
6.427375
11
20.132
21
6.427375
0
LINE
8
top_outsideCutPath
10
20.132
20
6.427375
11
20.132
21
7.032125
0
LINE
8
top_outsideCutPath
10
20.132
20
7.032125
11
20.25
21
7.032125
0
LINE
8
top_outsideCutPath
10
20.25
20
7.032125
11
20.25
21
7.636875
0
LINE
8
top_outsideCutPath
10
20.25
20
7.636875
11
20.132
21
7.636875
0
LINE
8
top_outsideCutPath
10
20.132
20
7.636875
11
20.132
21
8.241625
0
LINE
8
top_outsideCutPath
10
20.132
20
8.241625
11
20.25
21
8.241625
0
LINE
8
top_outsideCutPath
10
20.25
20
8.241625
11
20.25
21
8.846375
0
LINE
8
top_outsideCutPath
10
20.25
20
8.846375
11
20.132
21
8.846375
0
LINE
8
top_outsideCutPath
10
20.132
20
8.846375
11
20.132
21
9.451125
0
LINE
8
top_outsideCutPath
10
20.132
20
9.451125
11
20.25
21
9.451125
0
LINE
8
top_outsideCutPath
10
20.25
20
9.451125
11
20.25
21
10.055875
0
LINE
8
top_outsideCutPath
10
20.25
20
10.055875
11
20.132
21
10.055875
0
LINE
8
top_outsideCutPath
10
20.132
20
10.055875
11
20.132
21
10.660625
0
LINE
8
top_outsideCutPath
10
20.132
20
10.660625
11
20.25
21
10.660625
0
LINE
8
top_outsideCutPath
10
20.25
20
10.660625
11
20.25
21
11.265375
0
LINE
8
top_outsideCutPath
10
20.25
20
11.265375
11
20.132
21
11.265375
0
LINE
8
top_outsideCutPath
10
20.132
20
11.265375
11
20.132
21
12.007
0
LINE
8
top_outsideCutPath
10
20.132
20
12.007
11
19.761875
21
12.007
0
LINE
8
top_outsideCutPath
10
19.761875
20
12.007
11
19.761875
21
12.125
0
LINE
8
top_outsideCutPath
10
19.761875
20
12.125
11
19.157125
21
12.125
0
LINE
8
top_outsideCutPath
10
19.157125
20
12.125
11
19.157125
21
12.007
0
LINE
8
top_outsideCutPath
10
19.157125
20
12.007
11
18.552375
21
12.007
0
LINE
8
top_outsideCutPath
10
18.552375
20
12.007
11
18.552375
21
12.125
0
LINE
8
top_outsideCutPath
10
18.552375
20
12.125
11
17.947625
21
12.125
0
LINE
8
top_outsideCutPath
10
17.947625
20
12.125
11
17.947625
21
12.007
0
LINE
8
top_outsideCutPath
10
17.947625
20
12.007
11
17.342875
21
12.007
0
LINE
8
top_outsideCutPath
10
17.342875
20
12.007
11
17.342875
21
12.125
0
LINE
8
top_outsideCutPath
10
17.342875
20
12.125
11
16.738125
21
12.125
0
LINE
8
top_outsideCutPath
10
16.738125
20
12.125
11
16.738125
21
12.007
0
LINE
8
top_outsideCutPath
10
16.738125
20
12.007
11
16.368
21
12.007
0
LINE
8
top_labelLayer
10
17.9039029
20
6.0109375
11
17.9039029
21
5.9613281
0
LINE
8
top_labelLayer
10
17.7117154
20
6.0804688
11
17.7117154
21
6.3351563
0
LINE
8
top_labelLayer
10
17.7117154
20
6.3351563
11
17.6503873
21
6.3351563
0
LINE
8
top_labelLayer
10
17.6503873
20
6.3351563
11
17.6503873
21
6.3664063
0
LINE
8
top_labelLayer
10
17.6503873
20
6.3664063
11
17.7117154
21
6.3933594
0
LINE
8
top_labelLayer
10
17.7117154
20
6.3933594
11
17.7390592
21
6.4847656
0
LINE
8
top_labelLayer
10
17.7390592
20
6.4847656
11
17.7765592
21
6.4847656
0
LINE
8
top_labelLayer
10
17.7765592
20
6.4847656
11
17.7765592
21
6.3855469
0
LINE
8
top_labelLayer
10
17.7765592
20
6.3855469
11
17.9007779
21
6.3855469
0
LINE
8
top_labelLayer
10
17.9007779
20
6.3855469
11
17.9007779
21
6.3351563
0
LINE
8
top_labelLayer
10
17.9007779
20
6.3351563
11
17.7765592
21
6.3351563
0
LINE
8
top_labelLayer
10
17.7765592
20
6.3351563
11
17.7765592
21
6.0832031
0
ARC
8
top_labelLayer
10
17.8457552
20
6.2160806
40
0.2129561
50
269.879997
51
278.3024663
0
ARC
8
top_labelLayer
10
17.8479382
20
6.1985386
40
0.1952829
50
278.4118817
51
279.0074698
0
ARC
8
top_labelLayer
10
17.8239357
20
6.3518785
40
0.3504897
50
278.958281
51
280.5110044
0
ARC
8
top_labelLayer
10
17.8467096
20
6.2297182
40
0.2262248
50
280.4839747
51
282.6285311
0
ARC
8
top_labelLayer
10
17.8666292
20
6.1412588
40
0.1355505
50
282.5871425
51
285.5787887
0
ARC
8
top_labelLayer
10
17.8768775
20
6.1035489
40
0.0964739
50
285.7306322
51
286.2680348
0
ARC
8
top_labelLayer
10
17.8766393
20
6.0189911
40
0.0637834
50
287.9895683
51
295.3052585
0
ARC
8
top_labelLayer
10
17.8612413
20
6.0655843
40
0.1128546
50
283.3086929
51
288.119149
0
ARC
8
top_labelLayer
10
17.8450238
20
6.1332398
40
0.1824264
50
280.0059493
51
283.3739479
0
ARC
8
top_labelLayer
10
17.8341099
20
6.1924023
40
0.2425858
50
279.1888755
51
280.1165972
0
ARC
8
top_labelLayer
10
17.827462
20
6.2302717
40
0.2810312
50
275.5257553
51
279.2939123
0
ARC
8
top_labelLayer
10
17.8349833
20
6.1516816
40
0.2020821
50
270.8925541
51
275.5488149
0
ARC
8
top_labelLayer
10
17.8359402
20
6.1140191
40
0.1644097
50
269.9979137
51
270.7635923
0
ARC
8
top_labelLayer
10
17.833317
20
6.1189499
40
0.1693608
50
253.7848156
51
270.8854429
0
ARC
8
top_labelLayer
10
17.8132526
20
6.0505225
40
0.0980525
50
190.3817828
51
253.8772612
0
ARC
8
top_labelLayer
10
17.9155184
20
6.0781739
40
0.2038158
50
179.354861
51
192.8478523
0
ARC
8
top_labelLayer
10
17.9071347
20
6.0823875
40
0.1305781
50
179.642129
51
189.7507278
0
ARC
8
top_labelLayer
10
17.8610369
20
6.0741649
40
0.0837542
50
189.5478405
51
205.7869718
0
ARC
8
top_labelLayer
10
17.84209
20
6.0654281
40
0.0628944
50
206.1291188
51
221.4087188
0
ARC
8
top_labelLayer
10
17.8399683
20
6.0638183
40
0.0602386
50
221.595082
51
262.3504407
0
ARC
8
top_labelLayer
10
17.8450186
20
6.0897862
40
0.0866616
50
261.3264892
51
270.1920986
0
ARC
8
top_labelLayer
10
18.0240397
20
6.1696169
40
0.334949
50
349.1763443
51
0.3862683
0
ARC
8
top_labelLayer
10
18.1368123
20
6.1471368
40
0.219963
50
330.2506036
51
349.4115498
0
ARC
8
top_labelLayer
10
18.1715081
20
6.129104
40
0.1808988
50
318.1444194
51
329.7564337
0
ARC
8
top_labelLayer
10
18.1777796
20
6.1240795
40
0.1728754
50
278.8960073
51
317.9978505
0
ARC
8
top_labelLayer
10
18.161641
20
6.2013961
40
0.2517892
50
269.7502702
51
279.8035482
0
ARC
8
top_labelLayer
10
18.1590242
20
6.1578367
40
0.2082329
50
253.543622
51
270.4180554
0
ARC
8
top_labelLayer
10
18.1520897
20
6.1310178
40
0.1805508
50
238.811443
51
253.2431052
0
ARC
8
top_labelLayer
10
18.1498557
20
6.1265239
40
0.1755499
50
207.7947236
51
238.675642
0
ARC
8
top_labelLayer
10
18.1820384
20
6.1462274
40
0.2132212
50
205.6570391
51
208.4459165
0
ARC
8
top_labelLayer
10
18.2066836
20
6.1564868
40
0.2398827
50
188.9104529
51
205.3171201
0
ARC
8
top_labelLayer
10
18.2899956
20
6.1705981
40
0.3243765
50
179.7744522
51
189.0935728
0
ARC
8
top_labelLayer
10
18.3022995
20
6.1741553
40
0.3366855
50
169.244328
51
180.3880586
0
ARC
8
top_labelLayer
10
18.1879613
20
6.1967561
40
0.2201399
50
150.7111349
51
169.4696653
0
ARC
8
top_labelLayer
10
18.1514671
20
6.215497
40
0.179149
50
138.1762471
51
150.2287576
0
ARC
8
top_labelLayer
10
18.145392
20
6.2201584
40
0.1715143
50
99.1759624
51
137.9833325
0
ARC
8
top_labelLayer
10
18.1621028
20
6.1415151
40
0.2518471
50
89.7326528
51
100.0759795
0
ARC
8
top_labelLayer
10
18.1654421
20
6.1754789
40
0.2178912
50
73.5221181
51
90.5690812
0
ARC
8
top_labelLayer
10
18.17822
20
6.2219035
40
0.1697515
50
41.1447204
51
73.2132889
0
ARC
8
top_labelLayer
10
18.153829
20
6.2009397
40
0.2019127
50
13.5015179
51
41.0704863
0
ARC
8
top_labelLayer
10
18.059582
20
6.1762781
40
0.2993192
50
1.1278154
51
13.8797899
0
ARC
8
top_labelLayer
10
17.9789462
20
6.1719362
40
0.3800349
50
359.9907787
51
1.5430191
0
ARC
8
top_labelLayer
10
18.3611658
20
6.1701898
40
0.3283609
50
179.7059533
51
187.916232
0
ARC
8
top_labelLayer
10
18.2407443
20
6.152891
40
0.2067053
50
187.7640742
51
200.0974121
0
ARC
8
top_labelLayer
10
18.1743945
20
6.1285826
40
0.1360427
50
200.085069
51
216.9130132
0
ARC
8
top_labelLayer
10
18.1501628
20
6.1112801
40
0.106279
50
217.3009009
51
261.7098175
0
ARC
8
top_labelLayer
10
18.1614099
20
6.1649515
40
0.1610467
50
260.503336
51
270.2476757
0
ARC
8
top_labelLayer
10
18.1635567
20
6.1545168
40
0.1506175
50
269.4481605
51
284.7253533
0
ARC
8
top_labelLayer
10
18.1754805
20
6.110294
40
0.1048167
50
284.5660678
51
322.63358
0
ARC
8
top_labelLayer
10
18.1476064
20
6.1304335
40
0.1391961
50
323.0085069
51
342.6391979
0
ARC
8
top_labelLayer
10
18.0678689
20
6.1564943
40
0.2230799
50
342.3615719
51
353.7538372
0
ARC
8
top_labelLayer
10
17.9502467
20
6.1706727
40
0.3415489
50
353.5362747
51
0.2016839
0
ARC
8
top_labelLayer
10
17.9682664
20
6.1735276
40
0.3235314
50
359.7073289
51
7.8973263
0
ARC
8
top_labelLayer
10
18.0867468
20
6.1905129
40
0.2038416
50
7.7440828
51
20.0691926
0
ARC
8
top_labelLayer
10
18.1527672
20
6.2147394
40
0.1335167
50
20.0261614
51
37.4346543
0
ARC
8
top_labelLayer
10
18.1746796
20
6.2302868
40
0.1066711
50
37.9579729
51
80.4003659
0
ARC
8
top_labelLayer
10
18.1622321
20
6.1747485
40
0.1635352
50
79.3451919
51
90.3178771
0
ARC
8
top_labelLayer
10
18.1599259
20
6.1839625
40
0.1543251
50
89.4806306
51
103.8801225
0
ARC
8
top_labelLayer
10
18.1469585
20
6.2333455
40
0.1032759
50
103.4683454
51
142.3119643
0
ARC
8
top_labelLayer
10
18.1721686
20
6.2156159
40
0.1340722
50
142.902633
51
162.3748601
0
ARC
8
top_labelLayer
10
18.2516019
20
6.1891456
40
0.2177947
50
162.0654193
51
173.1675171
0
ARC
8
top_labelLayer
10
18.3754877
20
6.1733469
40
0.3426817
50
173.0089817
51
180.2460994
0
LINE
8
top_labelLayer
10
18.5374967
20
6.0125
11
18.5328092
21
6.0125
0
LINE
8
top_labelLayer
10
18.5374967
20
5.9414063
11
18.5374967
21
5.7652344
0
LINE
8
top_labelLayer
10
18.5374967
20
5.7652344
11
18.4726529
21
5.7652344
0
LINE
8
top_labelLayer
10
18.4726529
20
5.7652344
11
18.4726529
21
6.3855469
0
LINE
8
top_labelLayer
10
18.4726529
20
6.3855469
11
18.5253873
21
6.3855469
0
LINE
8
top_labelLayer
10
18.5253873
20
6.3855469
11
18.5343717
21
6.3269531
0
LINE
8
top_labelLayer
10
18.5343717
20
6.3269531
11
18.5374967
21
6.3269531
0
LINE
8
top_labelLayer
10
18.5374967
20
6.1863281
11
18.5374967
21
6.171875
0
ARC
8
top_labelLayer
10
18.6707781
20
6.1462909
40
0.1966845
50
255.7755261
51
270.3185795
0
ARC
8
top_labelLayer
10
18.6651712
20
6.1213724
40
0.1711537
50
245.980847
51
255.5451934
0
ARC
8
top_labelLayer
10
18.6542934
20
6.0960725
40
0.1436172
50
215.5851757
51
245.8363402
0
ARC
8
top_labelLayer
10
17.9240392
20
5.9355689
40
0.6136116
50
2.9502649
51
7.2023732
0
ARC
8
top_labelLayer
10
18.0232955
20
5.9411207
40
0.5142013
50
0.0318203
51
2.9017011
0
ARC
8
top_labelLayer
10
18.6803339
20
6.226638
40
0.1745439
50
132.3563722
51
144.9194924
0
ARC
8
top_labelLayer
10
18.6535937
20
6.2558122
40
0.1349693
50
115.4003608
51
132.3120532
0
ARC
8
top_labelLayer
10
18.6640266
20
6.2304149
40
0.1623933
50
97.706772
51
114.8818812
0
ARC
8
top_labelLayer
10
18.6713085
20
6.1831795
40
0.2101805
50
89.8464685
51
97.9471156
0
ARC
8
top_labelLayer
10
18.6738792
20
6.1946074
40
0.1987621
50
74.1924761
51
90.5787009
0
ARC
8
top_labelLayer
10
18.6876317
20
6.2446029
40
0.1469115
50
38.0522926
51
74.0416798
0
ARC
8
top_labelLayer
10
18.6496962
20
6.2155272
40
0.1947061
50
16.3357017
51
37.9089529
0
ARC
8
top_labelLayer
10
18.5500553
20
6.1848357
40
0.2989604
50
4.5765277
51
16.609187
0
ARC
8
top_labelLayer
10
18.4273357
20
6.1726072
40
0.4222711
50
359.9006455
51
4.9018473
0
ARC
8
top_labelLayer
10
18.4694361
20
6.1696309
40
0.3801766
50
350.6560109
51
0.3382065
0
ARC
8
top_labelLayer
10
18.6019623
20
6.1470873
40
0.2457497
50
335.830575
51
350.8255813
0
ARC
8
top_labelLayer
10
18.6602602
20
6.1219253
40
0.1822623
50
321.3163636
51
335.5435677
0
ARC
8
top_labelLayer
10
18.6825528
20
6.1037616
40
0.1535079
50
274.0639876
51
321.4079794
0
ARC
8
top_labelLayer
10
18.6721668
20
6.16956
40
0.2199509
50
269.9231219
51
275.5481192
0
ARC
8
top_labelLayer
10
18.6611602
20
6.1514512
40
0.1868348
50
89.5901429
51
100.3501968
0
ARC
8
top_labelLayer
10
18.6478389
20
6.2214348
40
0.1155977
50
100.0870058
51
118.1915464
0
ARC
8
top_labelLayer
10
18.634189
20
6.2480573
40
0.0856867
50
118.5568718
51
141.0245594
0
ARC
8
top_labelLayer
10
18.6549889
20
6.2333854
40
0.1110979
50
141.8893332
51
160.5972789
0
ARC
8
top_labelLayer
10
18.7280875
20
6.2065644
40
0.1889579
50
160.2898004
51
171.2449412
0
ARC
8
top_labelLayer
10
18.8482529
20
6.1871925
40
0.310673
50
171.087135
51
178.3250256
0
ARC
8
top_labelLayer
10
18.9491758
20
6.1823701
40
0.4116982
50
178.0647178
51
179.4491525
0
ARC
8
top_labelLayer
10
18.9662726
20
6.1702026
40
0.4287792
50
179.776523
51
185.7072608
0
ARC
8
top_labelLayer
10
18.7972264
20
6.1527891
40
0.2588397
50
185.5929881
51
194.2045983
0
ARC
8
top_labelLayer
10
18.6889151
20
6.1246804
40
0.1469441
50
193.942861
51
208.021548
0
ARC
8
top_labelLayer
10
18.6450874
20
6.1023832
40
0.097783
50
208.5530178
51
217.5614643
0
ARC
8
top_labelLayer
10
18.6415323
20
6.1009075
40
0.0940706
50
218.1689967
51
253.8047235
0
ARC
8
top_labelLayer
10
18.6589824
20
6.1547127
40
0.1506178
50
253.1387203
51
266.8478494
0
ARC
8
top_labelLayer
10
18.6638765
20
6.2124439
40
0.2085378
50
266.3774293
51
270.0502001
0
ARC
8
top_labelLayer
10
18.6655353
20
6.1131577
40
0.1092614
50
269.2259063
51
292.0427885
0
ARC
8
top_labelLayer
10
18.6670095
20
6.1043705
40
0.1005818
50
293.1430684
51
324.1353076
0
ARC
8
top_labelLayer
10
18.6444764
20
6.1233725
40
0.129994
50
323.166602
51
325.0092168
0
ARC
8
top_labelLayer
10
18.6216521
20
6.1374573
40
0.1567772
50
325.5755343
51
344.15048
0
ARC
8
top_labelLayer
10
18.5405199
20
6.1614406
40
0.2413768
50
343.9336815
51
355.1135518
0
ARC
8
top_labelLayer
10
18.4369743
20
6.171948
40
0.3454451
50
354.8400252
51
0.1174641
0
ARC
8
top_labelLayer
10
18.455198
20
6.1743063
40
0.3272247
50
359.7110838
51
7.8611971
0
ARC
8
top_labelLayer
10
18.5741745
20
6.1912669
40
0.2070474
50
7.7149805
51
19.8857069
0
ARC
8
top_labelLayer
10
18.6396109
20
6.2149012
40
0.1374736
50
19.8994042
51
35.8979054
0
ARC
8
top_labelLayer
10
18.6688003
20
6.2370064
40
0.1008703
50
35.4482068
51
85.2265517
0
ARC
8
top_labelLayer
10
18.6627032
20
6.1987534
40
0.1395279
50
84.038608
51
90.0847911
0
LINE
8
back_outsideCutPath
10
0
20
4.25
11
0
21
3.552375
0
LINE
8
back_outsideCutPath
10
0
20
3.552375
11
0.118
21
3.552375
0
LINE
8
back_outsideCutPath
10
0.118
20
3.552375
11
0.118
21
2.947625
0
LINE
8
back_outsideCutPath
10
0.118
20
2.947625
11
0
21
2.947625
0
LINE
8
back_outsideCutPath
10
0
20
2.947625
11
0
21
2.342875
0
LINE
8
back_outsideCutPath
10
0
20
2.342875
11
0
21
2.25
0
LINE
8
back_outsideCutPath
10
0
20
2.25
11
0.488125
21
2.25
0
LINE
8
back_outsideCutPath
10
0.488125
20
2.25
11
0.488125
21
2.368
0
LINE
8
back_outsideCutPath
10
0.488125
20
2.368
11
1.092875
21
2.368
0
LINE
8
back_outsideCutPath
10
1.092875
20
2.368
11
1.092875
21
2.25
0
LINE
8
back_outsideCutPath
10
1.092875
20
2.25
11
1.697625
21
2.25
0
LINE
8
back_outsideCutPath
10
1.697625
20
2.25
11
1.697625
21
2.368
0
LINE
8
back_outsideCutPath
10
1.697625
20
2.368
11
2.302375
21
2.368
0
LINE
8
back_outsideCutPath
10
2.302375
20
2.368
11
2.302375
21
2.25
0
LINE
8
back_outsideCutPath
10
2.302375
20
2.25
11
2.907125
21
2.25
0
LINE
8
back_outsideCutPath
10
2.907125
20
2.25
11
2.907125
21
2.368
0
LINE
8
back_outsideCutPath
10
2.907125
20
2.368
11
3.511875
21
2.368
0
LINE
8
back_outsideCutPath
10
3.511875
20
2.368
11
3.511875
21
2.25
0
LINE
8
back_outsideCutPath
10
3.511875
20
2.25
11
4
21
2.25
0
LINE
8
back_outsideCutPath
10
4
20
2.25
11
4
21
2.947625
0
LINE
8
back_outsideCutPath
10
4
20
2.947625
11
3.882
21
2.947625
0
LINE
8
back_outsideCutPath
10
3.882
20
2.947625
11
3.882
21
3.552375
0
LINE
8
back_outsideCutPath
10
3.882
20
3.552375
11
4
21
3.552375
0
LINE
8
back_outsideCutPath
10
4
20
3.552375
11
4
21
4.157125
0
LINE
8
back_outsideCutPath
10
4
20
4.157125
11
4
21
4.25
0
LINE
8
back_outsideCutPath
10
4
20
4.25
11
3.511875
21
4.25
0
LINE
8
back_outsideCutPath
10
3.511875
20
4.25
11
3.511875
21
4.132
0
LINE
8
back_outsideCutPath
10
3.511875
20
4.132
11
2.907125
21
4.132
0
LINE
8
back_outsideCutPath
10
2.907125
20
4.132
11
2.907125
21
4.25
0
LINE
8
back_outsideCutPath
10
2.907125
20
4.25
11
2.302375
21
4.25
0
LINE
8
back_outsideCutPath
10
2.302375
20
4.25
11
2.302375
21
4.132
0
LINE
8
back_outsideCutPath
10
2.302375
20
4.132
11
1.697625
21
4.132
0
LINE
8
back_outsideCutPath
10
1.697625
20
4.132
11
1.697625
21
4.25
0
LINE
8
back_outsideCutPath
10
1.697625
20
4.25
11
1.092875
21
4.25
0
LINE
8
back_outsideCutPath
10
1.092875
20
4.25
11
1.092875
21
4.132
0
LINE
8
back_outsideCutPath
10
1.092875
20
4.132
11
0.488125
21
4.132
0
LINE
8
back_outsideCutPath
10
0.488125
20
4.132
11
0.488125
21
4.25
0
LINE
8
back_outsideCutPath
10
0.488125
20
4.25
11
0
21
4.25
0
LINE
8
back_labelLayer
10
1.6177734
20
3.1275413
11
1.6154297
21
3.1275413
0
LINE
8
back_labelLayer
10
1.6154297
20
3.1275413
11
1.6085938
21
3.1000022
0
LINE
8
back_labelLayer
10
1.6085938
20
3.1000022
11
1.5853516
21
3.1000022
0
LINE
8
back_labelLayer
10
1.5853516
20
3.1000022
11
1.5853516
21
3.4039085
0
LINE
8
back_labelLayer
10
1.5853516
20
3.4039085
11
1.6177734
21
3.4039085
0
LINE
8
back_labelLayer
10
1.6177734
20
3.4039085
11
1.6177734
21
3.3300803
0
LINE
8
back_labelLayer
10
1.6162109
20
3.2855491
11
1.6177734
21
3.2855491
0
ARC
8
back_labelLayer
10
1.685933
20
3.2184878
40
0.0990973
50
74.2397741
51
90.5620192
0
ARC
8
back_labelLayer
10
1.6924863
20
3.242531
40
0.0741783
50
38.5628134
51
74.0671791
0
ARC
8
back_labelLayer
10
1.675622
20
3.2294183
40
0.0955395
50
16.4709473
51
38.4071188
0
ARC
8
back_labelLayer
10
1.627032
20
3.2141837
40
0.1464575
50
5.1344177
51
16.7967287
0
ARC
8
back_labelLayer
10
1.5657435
20
3.2076722
40
0.2080852
50
359.8779135
51
5.4099144
0
ARC
8
back_labelLayer
10
1.5837297
20
3.2061084
40
0.1901017
50
350.6561768
51
0.3376853
0
ARC
8
back_labelLayer
10
1.6500044
20
3.1948359
40
0.1228769
50
335.8305081
51
350.8252596
0
ARC
8
back_labelLayer
10
1.6791472
20
3.182259
40
0.0911405
50
321.3170207
51
335.5427567
0
ARC
8
back_labelLayer
10
1.6903013
20
3.1731721
40
0.0767542
50
274.0641724
51
321.4080613
0
ARC
8
back_labelLayer
10
1.6851075
20
3.2061132
40
0.1100173
50
269.923666
51
275.5465178
0
ARC
8
back_labelLayer
10
1.6844143
20
3.1944382
40
0.0983438
50
255.7756678
51
270.3184952
0
ARC
8
back_labelLayer
10
1.6816107
20
3.1819775
40
0.0855769
50
245.980847
51
255.5451934
0
ARC
8
back_labelLayer
10
1.6761718
20
3.1693275
40
0.0718086
50
215.5851757
51
245.8363402
0
ARC
8
back_labelLayer
10
0.9421691
20
3.3295032
40
0.6756046
50
358.111779
51
0.0489456
0
ARC
8
back_labelLayer
10
1.1295617
20
3.3232123
40
0.4881065
50
355.7248488
51
358.1250367
0
ARC
8
back_labelLayer
10
1.2071754
20
3.317976
40
0.4103188
50
355.4672747
51
355.6460874
0
ARC
8
back_labelLayer
10
1.6782391
20
3.2433846
40
0.0737152
50
95.1836913
51
145.1108229
0
ARC
8
back_labelLayer
10
1.6847197
20
3.206848
40
0.1107328
50
89.8751698
51
96.815372
0
ARC
8
back_labelLayer
10
1.6795947
20
3.1993276
40
0.0911068
50
89.5731237
51
100.7325835
0
ARC
8
back_labelLayer
10
1.6728502
20
3.2334018
40
0.0563734
50
100.4469439
51
119.6699918
0
ARC
8
back_labelLayer
10
1.6665925
20
3.245099
40
0.0431137
50
120.1390369
51
142.4263053
0
ARC
8
back_labelLayer
10
1.6769437
20
3.2382503
40
0.055501
50
143.3388352
51
161.2564233
0
ARC
8
back_labelLayer
10
1.720218
20
3.2228866
40
0.1014194
50
160.8929332
51
171.2331636
0
ARC
8
back_labelLayer
10
1.7924815
20
3.2112322
40
0.1746157
50
171.0676758
51
177.845213
0
ARC
8
back_labelLayer
10
1.8678305
20
3.2074096
40
0.2500571
50
177.6191067
51
180.04143
0
ARC
8
back_labelLayer
10
1.8321285
20
3.20639
40
0.2143567
50
179.7757899
51
185.7074399
0
ARC
8
back_labelLayer
10
1.7476016
20
3.1976793
40
0.1293828
50
185.5917073
51
194.2057914
0
ARC
8
back_labelLayer
10
1.6934766
20
3.1836296
40
0.0734657
50
193.9425427
51
208.0224392
0
ARC
8
back_labelLayer
10
1.6715981
20
3.1725024
40
0.0489266
50
208.5566716
51
217.5586365
0
ARC
8
back_labelLayer
10
1.6697912
20
3.1717454
40
0.0470355
50
218.1693317
51
253.8048401
0
ARC
8
back_labelLayer
10
1.6785141
20
3.1986348
40
0.0752961
50
253.1375139
51
266.8489951
0
ARC
8
back_labelLayer
10
1.6809587
20
3.2274127
40
0.1041683
50
266.3764729
51
270.0527887
0
ARC
8
back_labelLayer
10
1.6817463
20
3.1878757
40
0.064635
50
269.3869295
51
285.8625311
0
ARC
8
back_labelLayer
10
1.6865479
20
3.1705195
40
0.0466274
50
286.016399
51
326.8494188
0
ARC
8
back_labelLayer
10
1.6633716
20
3.1858722
40
0.074427
50
326.7107525
51
343.6663326
0
ARC
8
back_labelLayer
10
1.6199928
20
3.1991285
40
0.1197843
50
343.4167157
51
353.6369038
0
ARC
8
back_labelLayer
10
1.5544585
20
3.2069044
40
0.1857772
50
353.4935401
51
0.220526
0
ARC
8
back_labelLayer
10
1.5486961
20
3.2083964
40
0.1915399
50
359.7675795
51
6.3094138
0
ARC
8
back_labelLayer
10
1.6208364
20
3.2166752
40
0.118927
50
6.1645693
51
16.0392106
0
ARC
8
back_labelLayer
10
1.6672797
20
3.2303574
40
0.0705118
50
15.7811854
51
31.9754636
0
ARC
8
back_labelLayer
10
1.6817995
20
3.2386612
40
0.0538016
50
32.6624759
51
35.5262249
0
ARC
8
back_labelLayer
10
1.6871138
20
3.2424409
40
0.0472804
50
35.5407607
51
79.8014224
0
ARC
8
back_labelLayer
10
1.6807642
20
3.2154467
40
0.0749868
50
78.6783845
51
90.3749631
0
LINE
8
back_labelLayer
10
1.9861328
20
3.1000022
11
1.9621094
21
3.1000022
0
LINE
8
back_labelLayer
10
1.9621094
20
3.1000022
11
1.9556641
21
3.130471
0
LINE
8
back_labelLayer
10
1.9556641
20
3.130471
11
1.9541016
21
3.130471
0
LINE
8
back_labelLayer
10
1.9181641
20
3.2271506
11
1.9544922
21
3.2283225
0
LINE
8
back_labelLayer
10
1.9544922
20
3.2283225
11
1.9544922
21
3.2416038
0
LINE
8
back_labelLayer
10
1.8484375
20
3.2744163
11
1.8384766
21
3.299221
0
LINE
8
back_labelLayer
10
1.9861328
20
3.246096
11
1.9861328
21
3.1000022
0
LINE
8
back_labelLayer
10
1.9537109
20
3.1859397
11
1.9537109
21
3.2052756
0
LINE
8
back_labelLayer
10
1.9537109
20
3.2052756
11
1.9212891
21
3.2039085
0
ARC
8
back_labelLayer
10
1.848617
20
3.2137573
40
0.1344009
50
314.7439445
51
321.7068169
0
ARC
8
back_labelLayer
10
1.8816329
20
3.1802092
40
0.0873322
50
304.8486518
51
314.8528417
0
ARC
8
back_labelLayer
10
1.8974955
20
3.1576303
40
0.0597385
50
294.3939757
51
304.7373533
0
ARC
8
back_labelLayer
10
1.8920759
20
3.1716745
40
0.0747722
50
281.2988539
51
293.7314587
0
ARC
8
back_labelLayer
10
1.8849123
20
3.2064007
40
0.110229
50
272.9340445
51
281.4136873
0
ARC
8
back_labelLayer
10
1.8825427
20
3.2419242
40
0.1458282
50
269.952523
51
273.1494233
0
ARC
8
back_labelLayer
10
1.881719
20
3.1955848
40
0.0994913
50
258.6711825
51
270.4047798
0
ARC
8
back_labelLayer
10
1.8748082
20
3.162531
40
0.0657247
50
238.3269669
51
258.9179902
0
ARC
8
back_labelLayer
10
1.8700394
20
3.153834
40
0.0558216
50
227.7676388
51
237.8054573
0
ARC
8
back_labelLayer
10
1.8685549
20
3.1517624
40
0.0532908
50
192.0829088
51
227.4523871
0
ARC
8
back_labelLayer
10
1.896035
20
3.1585359
40
0.0815845
50
179.5463239
51
192.694703
0
ARC
8
back_labelLayer
10
1.870506
20
3.1614889
40
0.0561004
50
115.4903272
51
182.3568434
0
ARC
8
back_labelLayer
10
1.8986047
20
3.1099482
40
0.1147607
50
101.357443
51
117.0794295
0
ARC
8
back_labelLayer
10
1.9211641
20
3.0045201
40
0.222571
50
92.469353
51
101.7064623
0
ARC
8
back_labelLayer
10
1.9276407
20
2.9108812
40
0.3164115
50
91.7162921
51
92.9104986
0
ARC
8
back_labelLayer
10
1.8613951
20
3.2421035
40
0.0930984
50
359.6924601
51
8.0049384
0
ARC
8
back_labelLayer
10
1.8965903
20
3.2472329
40
0.0575322
50
7.8274116
51
20.6028436
0
ARC
8
back_labelLayer
10
1.9165318
20
3.2548601
40
0.0361823
50
20.4093931
51
41.4483525
0
ARC
8
back_labelLayer
10
1.9194771
20
3.2564797
40
0.0329108
50
42.729206
51
71.0386689
0
ARC
8
back_labelLayer
10
1.9125445
20
3.2376346
40
0.0529878
50
70.5704371
51
83.99427
0
ARC
8
back_labelLayer
10
1.9092278
20
3.2106845
40
0.0801384
50
83.6519206
51
90.1740244
0
ARC
8
back_labelLayer
10
1.9098098
20
3.1852698
40
0.1055559
50
90.448023
51
103.7664537
0
ARC
8
back_labelLayer
10
1.9222262
20
3.1329134
40
0.1593635
50
103.6229213
51
112.4318523
0
ARC
8
back_labelLayer
10
1.9434717
20
3.079265
40
0.217061
50
112.2118555
51
115.9650231
0
ARC
8
back_labelLayer
10
1.9094254
20
3.1676494
40
0.1494818
50
106.3568293
51
118.3353771
0
ARC
8
back_labelLayer
10
1.9159096
20
3.1475522
40
0.1705925
50
104.5180609
51
106.5455864
0
ARC
8
back_labelLayer
10
1.9111255
20
3.167431
40
0.1501497
50
90.0717561
51
104.652404
0
ARC
8
back_labelLayer
10
1.9117152
20
3.1806522
40
0.1369303
50
81.5683771
51
90.3254299
0
ARC
8
back_labelLayer
10
1.9196291
20
3.2322225
40
0.0847573
50
68.227611
51
81.748619
0
ARC
8
back_labelLayer
10
1.9306586
20
3.2596663
40
0.0551803
50
47.8680344
51
68.2932393
0
ARC
8
back_labelLayer
10
1.9324463
20
3.263238
40
0.0513434
50
19.2339493
51
46.6736255
0
ARC
8
back_labelLayer
10
1.9026336
20
3.2521483
40
0.0831478
50
6.3380202
51
19.6816114
0
ARC
8
back_labelLayer
10
1.8585481
20
3.2465337
40
0.1275856
50
359.8034078
51
6.6584152
0
ARC
8
back_labelLayer
10
1.8895228
20
3.2121226
40
0.0892712
50
269.5792087
51
282.0407625
0
ARC
8
back_labelLayer
10
1.8960352
20
3.1832343
40
0.0596609
50
281.7115681
51
306.4598176
0
ARC
8
back_labelLayer
10
1.898908
20
3.1785024
40
0.0541502
50
306.9903566
51
313.8556951
0
ARC
8
back_labelLayer
10
1.8985783
20
3.1783896
40
0.0542984
50
314.1891023
51
347.4271275
0
ARC
8
back_labelLayer
10
1.8713719
20
3.1852063
40
0.0823394
50
346.9184865
51
0.2821538
0
ARC
8
back_labelLayer
10
1.8195982
20
3.1860212
40
0.1341129
50
359.8250836
51
359.9651702
0
ARC
8
back_labelLayer
10
1.9290042
20
2.9659143
40
0.2381192
50
91.8567262
51
96.4469596
0
ARC
8
back_labelLayer
10
1.9182646
20
3.0588718
40
0.1445437
50
96.3541545
51
102.9948899
0
ARC
8
back_labelLayer
10
1.9036937
20
3.1207867
40
0.0809383
50
102.8000557
51
113.2433832
0
ARC
8
back_labelLayer
10
1.8916786
20
3.1495188
40
0.0497976
50
113.5871528
51
121.6785345
0
ARC
8
back_labelLayer
10
1.8833316
20
3.1622341
40
0.0345957
50
120.9731938
51
172.4181748
0
ARC
8
back_labelLayer
10
1.8996461
20
3.1589753
40
0.051209
50
171.2122646
51
180.2058908
0
ARC
8
back_labelLayer
10
1.8947713
20
3.1584092
40
0.0463354
50
179.5275243
51
192.7794044
0
ARC
8
back_labelLayer
10
1.8790976
20
3.1546095
40
0.0302106
50
192.3268558
51
222.0570444
0
ARC
8
back_labelLayer
10
1.8779265
20
3.1539099
40
0.0288736
50
222.5831236
51
229.2582439
0
ARC
8
back_labelLayer
10
1.8818695
20
3.1589829
40
0.0352922
50
229.7833418
51
254.272963
0
ARC
8
back_labelLayer
10
1.8871182
20
3.1764737
40
0.0535518
50
253.9399526
51
266.4527266
0
ARC
8
back_labelLayer
10
1.8887893
20
3.1957345
40
0.0728807
50
266.0783883
51
270.0612465
0
LINE
8
back_labelLayer
10
2.1957031
20
3.3068381
11
2.1857422
21
3.2792991
0
LINE
8
back_labelLayer
10
2.1925781
20
3.1359397
11
2.1925781
21
3.1072288
0
ARC
8
back_labelLayer
10
2.1374416
20
3.2172598
40
0.1211682
50
256.4241623
51
270.4893943
0
ARC
8
back_labelLayer
10
2.1277591
20
3.1794728
40
0.082166
50
221.7974505
51
256.8022198
0
ARC
8
back_labelLayer
10
2.1371374
20
3.1864022
40
0.0937823
50
196.0168066
51
221.1347469
0
ARC
8
back_labelLayer
10
2.1842689
20
3.200807
40
0.1430612
50
183.5915944
51
196.3536613
0
ARC
8
back_labelLayer
10
2.2369915
20
3.2054543
40
0.195976
50
179.9380304
51
183.9820246
0
ARC
8
back_labelLayer
10
2.2199117
20
3.206818
40
0.1788998
50
169.89831
51
180.3688593
0
ARC
8
back_labelLayer
10
2.1576306
20
3.2183367
40
0.1155644
50
153.0876677
51
170.1047252
0
ARC
8
back_labelLayer
10
2.1339905
20
3.2296341
40
0.0893733
50
138.6543781
51
152.6861955
0
ARC
8
back_labelLayer
10
2.1295878
20
3.2328427
40
0.0839499
50
101.4911523
51
138.313385
0
ARC
8
back_labelLayer
10
2.1397116
20
3.190714
40
0.1272602
50
89.5887426
51
102.1791737
0
ARC
8
back_labelLayer
10
2.140492
20
3.171665
40
0.146306
50
77.7702143
51
89.9479066
0
ARC
8
back_labelLayer
10
2.1377132
20
3.1563457
40
0.1618671
50
74.6802182
51
77.9576058
0
ARC
8
back_labelLayer
10
2.1526837
20
3.2105932
40
0.1055919
50
70.0929509
51
74.7377715
0
ARC
8
back_labelLayer
10
2.1668997
20
3.2495451
40
0.0641274
50
63.5055138
51
70.1854737
0
ARC
8
back_labelLayer
10
2.1804437
20
3.2770526
40
0.0334669
50
62.8734974
51
63.2490284
0
ARC
8
back_labelLayer
10
2.1324805
20
3.1452569
40
0.1442363
50
68.329594
51
74.8831312
0
ARC
8
back_labelLayer
10
2.1248654
20
3.1182587
40
0.1722865
50
74.7797812
51
77.4490081
0
ARC
8
back_labelLayer
10
2.1328592
20
3.1557762
40
0.1339288
50
77.2992395
51
81.7338113
0
ARC
8
back_labelLayer
10
2.1386872
20
3.1963733
40
0.0929155
50
81.6911135
51
87.5076165
0
ARC
8
back_labelLayer
10
2.1398122
20
3.2174373
40
0.0718228
50
87.6734454
51
89.9748221
0
ARC
8
back_labelLayer
10
2.1382369
20
3.2173607
40
0.0719173
50
88.7197523
51
112.5668315
0
ARC
8
back_labelLayer
10
2.1331258
20
3.2342575
40
0.0543815
50
114.4262405
51
161.6635694
0
ARC
8
back_labelLayer
10
2.1838979
20
3.2143856
40
0.1088657
50
160.1423053
51
175.1362565
0
ARC
8
back_labelLayer
10
2.2537703
20
3.2065396
40
0.1791617
50
174.530678
51
180.1543547
0
ARC
8
back_labelLayer
10
2.2316342
20
3.2052461
40
0.1570269
50
179.7041593
51
188.0739196
0
ARC
8
back_labelLayer
10
2.1750768
20
3.1969732
40
0.0998684
50
187.9319738
51
200.3880337
0
ARC
8
back_labelLayer
10
2.1444938
20
3.1856459
40
0.0672552
50
200.4193046
51
216.6388685
0
ARC
8
back_labelLayer
10
2.131669
20
3.1764778
40
0.0514941
50
216.9692182
51
261.3102758
0
ARC
8
back_labelLayer
10
2.1373257
20
3.2028514
40
0.0784359
50
260.1361568
51
270.2699683
0
ARC
8
back_labelLayer
10
2.1370664
20
3.2601315
40
0.1357167
50
270.26551
51
286.289424
0
ARC
8
back_labelLayer
10
2.1288339
20
3.290852
40
0.1675146
50
286.0449529
51
292.3664743
0
ARC
8
back_labelLayer
10
2.1507896
20
3.1894363
40
0.0922191
50
282.0338977
51
296.9455714
0
ARC
8
back_labelLayer
10
2.1413037
20
3.2321836
40
0.1360053
50
272.5979314
51
282.1877066
0
ARC
8
back_labelLayer
10
2.1385797
20
3.2739701
40
0.1778742
50
269.9667779
51
272.8643561
0
LINE
8
back_labelLayer
10
2.2738281
20
3.2095725
11
2.2753906
21
3.2095725
0
LINE
8
back_labelLayer
10
2.3009766
20
3.2408225
11
2.3701172
21
3.3140647
0
LINE
8
back_labelLayer
10
2.3701172
20
3.3140647
11
2.4085938
21
3.3140647
0
LINE
8
back_labelLayer
10
2.4085938
20
3.3140647
11
2.321875
21
3.2228538
0
LINE
8
back_labelLayer
10
2.321875
20
3.2228538
11
2.4146484
21
3.1000022
0
LINE
8
back_labelLayer
10
2.4146484
20
3.1000022
11
2.3753906
21
3.1000022
0
LINE
8
back_labelLayer
10
2.3753906
20
3.1000022
11
2.2998047
21
3.2011741
0
LINE
8
back_labelLayer
10
2.2998047
20
3.2011741
11
2.2753906
21
3.1800803
0
LINE
8
back_labelLayer
10
2.2753906
20
3.1800803
11
2.2753906
21
3.1000022
0
LINE
8
back_labelLayer
10
2.2753906
20
3.1000022
11
2.2433594
21
3.1000022
0
LINE
8
back_labelLayer
10
2.2433594
20
3.1000022
11
2.2433594
21
3.4039085
0
LINE
8
back_labelLayer
10
2.2433594
20
3.4039085
11
2.2753906
21
3.4039085
0
LINE
8
back_labelLayer
10
2.2753906
20
3.4039085
11
2.2753906
21
3.2427756
0
ARC
8
back_labelLayer
10
2.4322165
20
3.0985559
40
0.1921433
50
142.3238896
51
144.7054358
0
ARC
8
back_labelLayer
10
2.5343884
20
3.0197452
40
0.3211791
50
140.4339314
51
142.3364067
0
ARC
8
back_labelLayer
10
2.6672297
20
2.9103932
40
0.493239
50
139.2796268
51
140.4707764
0
ARC
8
back_labelLayer
10
2.8225455
20
2.7768203
40
0.6980918
50
138.3428202
51
139.2868339
0
ARC
8
back_labelLayer
10
2.0592162
20
3.24318
40
0.2161748
50
358.274876
51
359.8928359
0
ARC
8
back_labelLayer
10
1.8899934
20
3.2479091
40
0.3854634
50
357.5056144
51
358.3294811
0
ARC
8
back_labelLayer
10
1.6398026
20
3.2589628
40
0.6358982
50
356.6330198
51
357.4916932
0
ARC
8
back_labelLayer
10
1.2157948
20
3.2837308
40
1.0606287
50
356.0345443
51
356.6425916
0
ARC
8
back_labelLayer
10
-0.4175015
20
3.3966193
40
2.6978216
50
356.0243501
51
356.0416039
0
LINE
8
right_outsideCutPath
10
4.243
20
4.25
11
4.243
21
3.552375
0
LINE
8
right_outsideCutPath
10
4.243
20
3.552375
11
4.125
21
3.552375
0
LINE
8
right_outsideCutPath
10
4.125
20
3.552375
11
4.125
21
2.947625
0
LINE
8
right_outsideCutPath
10
4.125
20
2.947625
11
4.243
21
2.947625
0
LINE
8
right_outsideCutPath
10
4.243
20
2.947625
11
4.243
21
2.342875
0
LINE
8
right_outsideCutPath
10
4.243
20
2.342875
11
4.243
21
2.25
0
LINE
8
right_outsideCutPath
10
4.243
20
2.25
11
4.984625
21
2.25
0
LINE
8
right_outsideCutPath
10
4.984625
20
2.25
11
4.984625
21
2.368
0
LINE
8
right_outsideCutPath
10
4.984625
20
2.368
11
5.589375
21
2.368
0
LINE
8
right_outsideCutPath
10
5.589375
20
2.368
11
5.589375
21
2.25
0
LINE
8
right_outsideCutPath
10
5.589375
20
2.25
11
6.194125
21
2.25
0
LINE
8
right_outsideCutPath
10
6.194125
20
2.25
11
6.194125
21
2.368
0
LINE
8
right_outsideCutPath
10
6.194125
20
2.368
11
6.798875
21
2.368
0
LINE
8
right_outsideCutPath
10
6.798875
20
2.368
11
6.798875
21
2.25
0
LINE
8
right_outsideCutPath
10
6.798875
20
2.25
11
7.403625
21
2.25
0
LINE
8
right_outsideCutPath
10
7.403625
20
2.25
11
7.403625
21
2.368
0
LINE
8
right_outsideCutPath
10
7.403625
20
2.368
11
8.008375
21
2.368
0
LINE
8
right_outsideCutPath
10
8.008375
20
2.368
11
8.008375
21
2.25
0
LINE
8
right_outsideCutPath
10
8.008375
20
2.25
11
8.613125
21
2.25
0
LINE
8
right_outsideCutPath
10
8.613125
20
2.25
11
8.613125
21
2.368
0
LINE
8
right_outsideCutPath
10
8.613125
20
2.368
11
9.217875
21
2.368
0
LINE
8
right_outsideCutPath
10
9.217875
20
2.368
11
9.217875
21
2.25
0
LINE
8
right_outsideCutPath
10
9.217875
20
2.25
11
9.822625
21
2.25
0
LINE
8
right_outsideCutPath
10
9.822625
20
2.25
11
9.822625
21
2.368
0
LINE
8
right_outsideCutPath
10
9.822625
20
2.368
11
10.427375
21
2.368
0
LINE
8
right_outsideCutPath
10
10.427375
20
2.368
11
10.427375
21
2.25
0
LINE
8
right_outsideCutPath
10
10.427375
20
2.25
11
11.032125
21
2.25
0
LINE
8
right_outsideCutPath
10
11.032125
20
2.25
11
11.032125
21
2.368
0
LINE
8
right_outsideCutPath
10
11.032125
20
2.368
11
11.636875
21
2.368
0
LINE
8
right_outsideCutPath
10
11.636875
20
2.368
11
11.636875
21
2.25
0
LINE
8
right_outsideCutPath
10
11.636875
20
2.25
11
12.241625
21
2.25
0
LINE
8
right_outsideCutPath
10
12.241625
20
2.25
11
12.241625
21
2.368
0
LINE
8
right_outsideCutPath
10
12.241625
20
2.368
11
12.846375
21
2.368
0
LINE
8
right_outsideCutPath
10
12.846375
20
2.368
11
12.846375
21
2.25
0
LINE
8
right_outsideCutPath
10
12.846375
20
2.25
11
13.451125
21
2.25
0
LINE
8
right_outsideCutPath
10
13.451125
20
2.25
11
13.451125
21
2.368
0
LINE
8
right_outsideCutPath
10
13.451125
20
2.368
11
14.055875
21
2.368
0
LINE
8
right_outsideCutPath
10
14.055875
20
2.368
11
14.055875
21
2.25
0
LINE
8
right_outsideCutPath
10
14.055875
20
2.25
11
14.660625
21
2.25
0
LINE
8
right_outsideCutPath
10
14.660625
20
2.25
11
14.660625
21
2.368
0
LINE
8
right_outsideCutPath
10
14.660625
20
2.368
11
15.265375
21
2.368
0
LINE
8
right_outsideCutPath
10
15.265375
20
2.368
11
15.265375
21
2.25
0
LINE
8
right_outsideCutPath
10
15.265375
20
2.25
11
16.007
21
2.25
0
LINE
8
right_outsideCutPath
10
16.007
20
2.25
11
16.007
21
2.947625
0
LINE
8
right_outsideCutPath
10
16.007
20
2.947625
11
16.125
21
2.947625
0
LINE
8
right_outsideCutPath
10
16.125
20
2.947625
11
16.125
21
3.552375
0
LINE
8
right_outsideCutPath
10
16.125
20
3.552375
11
16.007
21
3.552375
0
LINE
8
right_outsideCutPath
10
16.007
20
3.552375
11
16.007
21
4.157125
0
LINE
8
right_outsideCutPath
10
16.007
20
4.157125
11
16.007
21
4.25
0
LINE
8
right_outsideCutPath
10
16.007
20
4.25
11
15.265375
21
4.25
0
LINE
8
right_outsideCutPath
10
15.265375
20
4.25
11
15.265375
21
4.132
0
LINE
8
right_outsideCutPath
10
15.265375
20
4.132
11
14.660625
21
4.132
0
LINE
8
right_outsideCutPath
10
14.660625
20
4.132
11
14.660625
21
4.25
0
LINE
8
right_outsideCutPath
10
14.660625
20
4.25
11
14.055875
21
4.25
0
LINE
8
right_outsideCutPath
10
14.055875
20
4.25
11
14.055875
21
4.132
0
LINE
8
right_outsideCutPath
10
14.055875
20
4.132
11
13.451125
21
4.132
0
LINE
8
right_outsideCutPath
10
13.451125
20
4.132
11
13.451125
21
4.25
0
LINE
8
right_outsideCutPath
10
13.451125
20
4.25
11
12.846375
21
4.25
0
LINE
8
right_outsideCutPath
10
12.846375
20
4.25
11
12.846375
21
4.132
0
LINE
8
right_outsideCutPath
10
12.846375
20
4.132
11
12.241625
21
4.132
0
LINE
8
right_outsideCutPath
10
12.241625
20
4.132
11
12.241625
21
4.25
0
LINE
8
right_outsideCutPath
10
12.241625
20
4.25
11
11.636875
21
4.25
0
LINE
8
right_outsideCutPath
10
11.636875
20
4.25
11
11.636875
21
4.132
0
LINE
8
right_outsideCutPath
10
11.636875
20
4.132
11
11.032125
21
4.132
0
LINE
8
right_outsideCutPath
10
11.032125
20
4.132
11
11.032125
21
4.25
0
LINE
8
right_outsideCutPath
10
11.032125
20
4.25
11
10.427375
21
4.25
0
LINE
8
right_outsideCutPath
10
10.427375
20
4.25
11
10.427375
21
4.132
0
LINE
8
right_outsideCutPath
10
10.427375
20
4.132
11
9.822625
21
4.132
0
LINE
8
right_outsideCutPath
10
9.822625
20
4.132
11
9.822625
21
4.25
0
LINE
8
right_outsideCutPath
10
9.822625
20
4.25
11
9.217875
21
4.25
0
LINE
8
right_outsideCutPath
10
9.217875
20
4.25
11
9.217875
21
4.132
0
LINE
8
right_outsideCutPath
10
9.217875
20
4.132
11
8.613125
21
4.132
0
LINE
8
right_outsideCutPath
10
8.613125
20
4.132
11
8.613125
21
4.25
0
LINE
8
right_outsideCutPath
10
8.613125
20
4.25
11
8.008375
21
4.25
0
LINE
8
right_outsideCutPath
10
8.008375
20
4.25
11
8.008375
21
4.132
0
LINE
8
right_outsideCutPath
10
8.008375
20
4.132
11
7.403625
21
4.132
0
LINE
8
right_outsideCutPath
10
7.403625
20
4.132
11
7.403625
21
4.25
0
LINE
8
right_outsideCutPath
10
7.403625
20
4.25
11
6.798875
21
4.25
0
LINE
8
right_outsideCutPath
10
6.798875
20
4.25
11
6.798875
21
4.132
0
LINE
8
right_outsideCutPath
10
6.798875
20
4.132
11
6.194125
21
4.132
0
LINE
8
right_outsideCutPath
10
6.194125
20
4.132
11
6.194125
21
4.25
0
LINE
8
right_outsideCutPath
10
6.194125
20
4.25
11
5.589375
21
4.25
0
LINE
8
right_outsideCutPath
10
5.589375
20
4.25
11
5.589375
21
4.132
0
LINE
8
right_outsideCutPath
10
5.589375
20
4.132
11
4.984625
21
4.132
0
LINE
8
right_outsideCutPath
10
4.984625
20
4.132
11
4.984625
21
4.25
0
LINE
8
right_outsideCutPath
10
4.984625
20
4.25
11
4.243
21
4.25
0
LINE
8
right_labelLayer
10
9.8344726
20
3.3617199
11
9.8299805
21
3.3316418
0
LINE
8
right_labelLayer
10
9.7436523
20
3.2609387
11
9.7436523
21
3.1460949
0
LINE
8
right_labelLayer
10
9.7436523
20
3.1460949
11
9.7112305
21
3.1460949
0
LINE
8
right_labelLayer
10
9.7112305
20
3.1460949
11
9.7112305
21
3.3601574
0
LINE
8
right_labelLayer
10
9.7112305
20
3.3601574
11
9.7379883
21
3.3601574
0
LINE
8
right_labelLayer
10
9.7379883
20
3.3601574
11
9.7416992
21
3.320509
0
LINE
8
right_labelLayer
10
9.7416992
20
3.320509
11
9.7432617
21
3.320509
0
ARC
8
right_labelLayer
10
9.8092173
20
3.2151786
40
0.1488854
50
84.9928655
51
90.1272365
0
ARC
8
right_labelLayer
10
9.8127959
20
3.2552713
40
0.1086335
50
78.4899129
51
85.0274832
0
ARC
8
right_labelLayer
10
9.7989202
20
3.1921788
40
0.1428799
50
77.4443854
51
81.6353934
0
ARC
8
right_labelLayer
10
9.8051455
20
3.2350855
40
0.0995239
50
81.5878192
51
87.1914046
0
ARC
8
right_labelLayer
10
9.8064978
20
3.2584332
40
0.0761382
50
87.3469007
51
89.9660082
0
ARC
8
right_labelLayer
10
9.8061833
20
3.2783959
40
0.0561767
50
89.633212
51
137.0884462
0
ARC
8
right_labelLayer
10
9.8199187
20
3.2629402
40
0.0767851
50
135.6199093
51
138.8397157
0
ARC
8
right_labelLayer
10
9.8179496
20
3.2648633
40
0.0740371
50
138.9572456
51
174.5422555
0
ARC
8
right_labelLayer
10
9.8420501
20
3.2610903
40
0.098398
50
173.6899732
51
180.0883225
0
ARC
8
right_labelLayer
10
9.8386576
20
3.2667623
40
0.1094947
50
139.4139552
51
150.6027987
0
ARC
8
right_labelLayer
10
9.819026
20
3.2835838
40
0.083642
50
124.2328179
51
139.4157895
0
ARC
8
right_labelLayer
10
9.8085253
20
3.2994319
40
0.0646326
50
89.6796276
51
124.4401836
0
LINE
8
right_labelLayer
10
9.9069336
20
3.3601574
11
9.9069336
21
3.1460949
0
LINE
8
right_labelLayer
10
9.9069336
20
3.1460949
11
9.8745117
21
3.1460949
0
LINE
8
right_labelLayer
10
9.8745117
20
3.1460949
11
9.8745117
21
3.3601574
0
LINE
8
right_labelLayer
10
9.8745117
20
3.3601574
11
9.9069336
21
3.3601574
0
ARC
8
right_labelLayer
10
9.9076867
20
3.4183886
40
0.0359101
50
170.842481
51
180.3563443
0
ARC
8
right_labelLayer
10
9.8942471
20
3.4206383
40
0.022284
50
155.9650035
51
171.053712
0
ARC
8
right_labelLayer
10
9.8877392
20
3.423527
40
0.0151638
50
133.7876521
51
155.918056
0
ARC
8
right_labelLayer
10
9.8901453
20
3.4208665
40
0.0187497
50
92.645489
51
133.469742
0
ARC
8
right_labelLayer
10
9.8909077
20
3.4148129
40
0.0248367
50
89.9764055
51
93.7579258
0
ARC
8
right_labelLayer
10
9.8912137
20
3.4205486
40
0.0191033
50
46.3718899
51
90.8871726
0
ARC
8
right_labelLayer
10
9.893114
20
3.4225114
40
0.0163714
50
17.7259548
51
46.4458034
0
ARC
8
right_labelLayer
10
9.8842498
20
3.4194594
40
0.0257449
50
4.9420061
51
18.189444
0
ARC
8
right_labelLayer
10
9.8729746
20
3.4182418
40
0.0370839
50
359.8816311
51
5.3155198
0
ARC
8
right_labelLayer
10
9.876524
20
3.4179364
40
0.0335353
50
349.8331785
51
0.390932
0
ARC
8
right_labelLayer
10
9.8887262
20
3.4156587
40
0.0211228
50
332.6336467
51
350.071946
0
ARC
8
right_labelLayer
10
9.893478
20
3.4133134
40
0.0158249
50
313.6166406
51
332.2664059
0
ARC
8
right_labelLayer
10
9.891189
20
3.4153977
40
0.0189142
50
269.1789009
51
314.2812218
0
ARC
8
right_labelLayer
10
9.8907025
20
3.4170757
40
0.0205913
50
250.4980227
51
270.5993969
0
ARC
8
right_labelLayer
10
9.8900792
20
3.4147481
40
0.0181902
50
225.1300764
51
249.9012783
0
ARC
8
right_labelLayer
10
9.8891029
20
3.4136704
40
0.0167377
50
197.7933049
51
224.8958113
0
ARC
8
right_labelLayer
10
9.8982301
20
3.4167991
40
0.0263849
50
184.9905844
51
198.2057193
0
ARC
8
right_labelLayer
10
9.9101094
20
3.4180874
40
0.0383321
50
179.8837186
51
185.3642719
0
LINE
8
right_labelLayer
10
10.0768555
20
3.3601574
11
10.1508789
21
3.3601574
0
LINE
8
right_labelLayer
10
10.1508789
20
3.3601574
11
10.1508789
21
3.3396496
0
LINE
8
right_labelLayer
10
10.1508789
20
3.3396496
11
10.1112305
21
3.3349621
0
LINE
8
right_labelLayer
10
10.0381836
20
3.1800793
11
10.0760742
21
3.1800793
0
LINE
8
right_labelLayer
10
10.0657226
20
3.1509777
11
10.0268555
21
3.1509777
0
ARC
8
right_labelLayer
10
10.0699291
20
3.3022739
40
0.0526718
50
29.4578057
51
38.3600807
0
ARC
8
right_labelLayer
10
10.0483638
20
3.2899648
40
0.0775024
50
23.1848709
51
29.5408238
0
ARC
8
right_labelLayer
10
10.0277282
20
3.2808156
40
0.100074
50
21.2529291
51
23.3486578
0
ARC
8
right_labelLayer
10
10.062767
20
3.2947529
40
0.0623667
50
6.8493921
51
20.9880205
0
ARC
8
right_labelLayer
10
10.0452081
20
3.2923703
40
0.080085
50
359.8700103
51
7.0436421
0
ARC
8
right_labelLayer
10
10.0509737
20
3.2914152
40
0.0743233
50
342.5649089
51
0.5962873
0
ARC
8
right_labelLayer
10
10.0646803
20
3.28763
40
0.0601142
50
310.6093425
51
342.0925404
0
ARC
8
right_labelLayer
10
10.0569919
20
3.2965729
40
0.0719078
50
284.9317346
51
310.6220008
0
ARC
8
right_labelLayer
10
10.0473724
20
3.3302826
40
0.1069596
50
272.5338162
51
285.2578515
0
ARC
8
right_labelLayer
10
10.0449038
20
3.3639233
40
0.14068
50
269.9675858
51
272.9325128
0
ARC
8
right_labelLayer
10
10.0445929
20
3.3274587
40
0.1042156
50
263.4847515
51
270.1271433
0
ARC
8
right_labelLayer
10
10.0428858
20
3.3112539
40
0.0879218
50
259.494756
51
263.3917956
0
ARC
8
right_labelLayer
10
10.0533972
20
3.1735868
40
0.0576875
50
117.3932277
51
128.4103805
0
ARC
8
right_labelLayer
10
10.0385418
20
3.1920125
40
0.0340206
50
128.0857978
51
147.1419342
0
ARC
8
right_labelLayer
10
10.0305457
20
3.1973775
40
0.0243935
50
147.5373191
51
180.2600456
0
ARC
8
right_labelLayer
10
10.0229531
20
3.1970585
40
0.0168021
50
179.2898702
51
198.3581229
0
ARC
8
right_labelLayer
10
10.019809
20
3.1962325
40
0.0135593
50
199.2296205
51
239.5683765
0
ARC
8
right_labelLayer
10
10.0223786
20
3.1997789
40
0.0179235
50
238.2279319
51
239.8599992
0
ARC
8
right_labelLayer
10
10.0244953
20
3.2041102
40
0.0227348
50
240.7277821
51
254.5052533
0
ARC
8
right_labelLayer
10
10.0307053
20
3.2255101
40
0.0450167
50
254.1650712
51
262.2133266
0
ARC
8
right_labelLayer
10
10.0356215
20
3.2598375
40
0.0796942
50
262.0550886
51
267.2086312
0
ARC
8
right_labelLayer
10
10.0379942
20
3.3033398
40
0.1232606
50
267.0918352
51
270.0880507
0
ARC
8
right_labelLayer
10
10.076783
20
3.0473557
40
0.1327255
50
81.5750041
51
90.3059588
0
ARC
8
right_labelLayer
10
10.0840631
20
3.0948458
40
0.0846814
50
68.3664605
51
81.7398177
0
ARC
8
right_labelLayer
10
10.0935722
20
3.1191448
40
0.0585886
50
52.1869823
51
68.2500978
0
ARC
8
right_labelLayer
10
10.1002235
20
3.128106
40
0.047432
50
8.6199925
51
51.8978085
0
ARC
8
right_labelLayer
10
10.0768936
20
3.1231711
40
0.0712516
50
359.7439673
51
9.7317755
0
ARC
8
right_labelLayer
10
10.077951
20
3.1219709
40
0.070199
50
340.5263887
51
0.719781
0
ARC
8
right_labelLayer
10
10.0882652
20
3.1194018
40
0.0596273
50
302.990154
51
339.5497557
0
ARC
8
right_labelLayer
10
10.0771205
20
3.1336226
40
0.07764
50
303.1961756
51
304.174361
0
ARC
8
right_labelLayer
10
10.0673454
20
3.1506347
40
0.0972341
50
286.254536
51
302.5276717
0
ARC
8
right_labelLayer
10
10.0489848
20
3.2111978
40
0.1605171
50
276.4938602
51
286.4954086
0
ARC
8
right_labelLayer
10
10.0375253
20
3.3070113
40
0.2570124
50
269.7548739
51
276.6164118
0
ARC
8
right_labelLayer
10
10.0355688
20
3.2316403
40
0.1816412
50
262.5634629
51
270.2703092
0
ARC
8
right_labelLayer
10
10.0266721
20
3.1657025
40
0.1151068
50
251.2100352
51
262.7066471
0
ARC
8
right_labelLayer
10
10.0138495
20
3.1280665
40
0.0753463
50
235.9664009
51
251.2227366
0
ARC
8
right_labelLayer
10
10.0002594
20
3.1086792
40
0.0516756
50
208.9043815
51
236.4227377
0
ARC
8
right_labelLayer
10
10.0015062
20
3.1081545
40
0.0525241
50
182.2079562
51
207.7459118
0
ARC
8
right_labelLayer
10
10.0174166
20
3.109741
40
0.0684908
50
179.9784365
51
183.0213601
0
ARC
8
right_labelLayer
10
9.9984929
20
3.1106365
40
0.0495748
50
138.3917029
51
181.0051736
0
ARC
8
right_labelLayer
10
10.0037286
20
3.1059308
40
0.0566142
50
113.8124452
51
138.3494536
0
ARC
8
right_labelLayer
10
10.0136579
20
3.0844892
40
0.0802406
50
102.287032
51
114.1174564
0
ARC
8
right_labelLayer
10
10.0105388
20
3.1935121
40
0.0336511
50
216.5869812
51
245.4964513
0
ARC
8
right_labelLayer
10
10.0152234
20
3.197501
40
0.0397923
50
215.4616762
51
217.1782804
0
ARC
8
right_labelLayer
10
10.0073317
20
3.1918023
40
0.0300583
50
182.1766497
51
215.3412321
0
ARC
8
right_labelLayer
10
10.0145754
20
3.1925688
40
0.0373292
50
179.9839074
51
182.9300087
0
ARC
8
right_labelLayer
10
10.0143214
20
3.192892
40
0.0370767
50
161.7218517
51
180.4833336
0
ARC
8
right_labelLayer
10
10.0102487
20
3.1940029
40
0.032862
50
144.4975509
51
161.3338487
0
ARC
8
right_labelLayer
10
10.0211175
20
3.1859013
40
0.0464159
50
132.7275333
51
144.1476089
0
ARC
8
right_labelLayer
10
10.0385212
20
3.1673165
40
0.0718768
50
125.2212352
51
132.8666102
0
ARC
8
right_labelLayer
10
10.0560003
20
3.1430477
40
0.1017839
50
121.2334368
51
125.3803056
0
ARC
8
right_labelLayer
10
10.0249952
20
3.2825793
40
0.0568357
50
215.1633425
51
247.4755044
0
ARC
8
right_labelLayer
10
10.0356307
20
3.2911572
40
0.070476
50
212.4700155
51
215.8848419
0
ARC
8
right_labelLayer
10
10.032817
20
3.2891481
40
0.0670241
50
183.0163216
51
212.3123143
0
ARC
8
right_labelLayer
10
10.04756
20
3.2907871
40
0.0818373
50
179.9759654
51
183.6191225
0
ARC
8
right_labelLayer
10
10.0593871
20
3.2916134
40
0.0936678
50
166.8194067
51
180.484427
0
ARC
8
right_labelLayer
10
10.0283172
20
3.299458
40
0.0616301
50
132.3288697
51
167.3338581
0
ARC
8
right_labelLayer
10
10.0324742
20
3.2934819
40
0.0688541
50
106.2188229
51
131.5374921
0
ARC
8
right_labelLayer
10
10.0429938
20
3.2594183
40
0.1045019
50
93.6331978
51
106.5405328
0
ARC
8
right_labelLayer
10
10.0464298
20
3.2207874
40
0.1432763
50
89.9391263
51
94.0255255
0
ARC
8
right_labelLayer
10
10.0469846
20
3.2398182
40
0.1242461
50
82.5841656
51
90.1856604
0
ARC
8
right_labelLayer
10
10.0507791
20
3.2691667
40
0.0946534
50
74.0086035
51
82.5688654
0
ARC
8
right_labelLayer
10
10.0127328
20
3.109714
40
0.03256
50
179.2198058
51
200.9362216
0
ARC
8
right_labelLayer
10
10.008863
20
3.1088183
40
0.0286309
50
202.0292538
51
236.1458594
0
ARC
8
right_labelLayer
10
10.0146574
20
3.1161671
40
0.0379686
50
235.0621286
51
238.5094758
0
ARC
8
right_labelLayer
10
10.0214843
20
3.1283485
40
0.051925
50
239.1070913
51
254.4860876
0
ARC
8
right_labelLayer
10
10.0305329
20
3.1595528
40
0.0844135
50
254.2331535
51
263.4926688
0
ARC
8
right_labelLayer
10
10.0362102
20
3.207633
40
0.1328274
50
263.4099546
51
270.1464272
0
LINE
8
right_labelLayer
10
10.0365497
20
3.0748061
11
10.0368164
21
3.0748058
0
ARC
8
right_labelLayer
10
10.0375933
20
3.2927627
40
0.2179583
50
269.7957643
51
275.3990853
0
ARC
8
right_labelLayer
10
10.0457522
20
3.2090132
40
0.1338129
50
275.2952624
51
283.3514063
0
ARC
8
right_labelLayer
10
10.0590386
20
3.1542836
40
0.0774948
50
283.1377719
51
295.8569099
0
ARC
8
right_labelLayer
10
10.0688732
20
3.1328079
40
0.0538825
50
296.4056297
51
301.7984352
0
ARC
8
right_labelLayer
10
10.0727492
20
3.127457
40
0.0472946
50
301.2233959
51
318.6240133
0
ARC
8
right_labelLayer
10
10.0814576
20
3.1194128
40
0.0354439
50
319.0766015
51
1.140514
0
ARC
8
right_labelLayer
10
10.0730318
20
3.1204659
40
0.0438641
50
359.546034
51
10.9908779
0
ARC
8
right_labelLayer
10
10.0899769
20
3.1239132
40
0.026573
50
10.6599326
51
30.9376549
0
ARC
8
right_labelLayer
10
10.0953474
20
3.1268952
40
0.0204347
50
31.5075677
51
58.0782353
0
ARC
8
right_labelLayer
10
10.0903127
20
3.1178824
40
0.0307504
50
58.9956678
51
73.8593244
0
ARC
8
right_labelLayer
10
10.0801263
20
3.0845278
40
0.0656239
50
73.4119028
51
81.5884183
0
ARC
8
right_labelLayer
10
10.0715056
20
3.0287167
40
0.1220963
50
81.4177235
51
86.5744164
0
ARC
8
right_labelLayer
10
10.0662235
20
2.944594
40
0.2063844
50
86.5060987
51
90.1390528
0
ARC
8
right_labelLayer
10
10.0263907
20
3.0764548
40
0.0745244
50
89.6426575
51
100.0206322
0
ARC
8
right_labelLayer
10
10.021705
20
3.1019408
40
0.048612
50
99.8089909
51
116.8246509
0
ARC
8
right_labelLayer
10
10.0171513
20
3.1115453
40
0.0379872
50
117.2325551
51
130.5002474
0
ARC
8
right_labelLayer
10
10.0148012
20
3.1145667
40
0.0341638
50
130.7941394
51
169.0418204
0
ARC
8
right_labelLayer
10
10.032058
20
3.1105023
40
0.0518835
50
168.2578971
51
180.380933
0
ARC
8
right_labelLayer
10
10.0610258
20
3.2911177
40
0.0632737
50
179.5608166
51
191.6544397
0
ARC
8
right_labelLayer
10
10.0390378
20
3.2863658
40
0.0407797
50
191.3563896
51
213.3651307
0
ARC
8
right_labelLayer
10
10.0337542
20
3.2833167
40
0.0346919
50
213.9584175
51
227.7961697
0
ARC
8
right_labelLayer
10
10.0383496
20
3.2888929
40
0.041911
50
228.2634593
51
254.7330344
0
ARC
8
right_labelLayer
10
10.0442219
20
3.3090267
40
0.0628817
50
254.4018971
51
267.4345189
0
ARC
8
right_labelLayer
10
10.0457575
20
3.3295897
40
0.083495
50
267.0133876
51
270.0296781
0
ARC
8
right_labelLayer
10
10.0467553
20
3.316723
40
0.0706345
50
269.2256738
51
284.3769173
0
ARC
8
right_labelLayer
10
10.0563825
20
3.2831802
40
0.0357657
50
282.7794757
51
346.4826347
0
ARC
8
right_labelLayer
10
10.0275989
20
3.2913337
40
0.0656685
50
345.4358038
51
0.7459387
0
ARC
8
right_labelLayer
10
10.0235557
20
3.2931863
40
0.0697131
50
359.1799884
51
15.0429425
0
ARC
8
right_labelLayer
10
10.0551429
20
3.3024004
40
0.0368235
50
13.9535136
51
77.6671494
0
ARC
8
right_labelLayer
10
10.0460798
20
3.2699223
40
0.0705139
50
76.1093808
51
90.7028359
0
ARC
8
right_labelLayer
10
10.0447233
20
3.2724009
40
0.0680317
50
89.5860353
51
101.3332585
0
ARC
8
right_labelLayer
10
10.0398625
20
3.295588
40
0.0443421
50
101.0627394
51
121.9733651
0
ARC
8
right_labelLayer
10
10.0364372
20
3.3017463
40
0.0373059
50
122.5190667
51
134.9987054
0
ARC
8
right_labelLayer
10
10.03785
20
3.3008946
40
0.0389091
50
135.5830662
51
163.0018142
0
ARC
8
right_labelLayer
10
10.0584038
20
3.2941583
40
0.0605357
50
162.5916696
51
175.7337991
0
ARC
8
right_labelLayer
10
10.0830258
20
3.2917336
40
0.0852719
50
175.3398149
51
180.0879387
0
LINE
8
right_labelLayer
10
10.3737305
20
3.1460949
11
10.3413086
21
3.1460949
0
LINE
8
right_labelLayer
10
10.3413086
20
3.1460949
11
10.3413086
21
3.2845715
0
LINE
8
right_labelLayer
10
10.2272461
20
3.258009
11
10.2272461
21
3.1460949
0
LINE
8
right_labelLayer
10
10.2272461
20
3.1460949
11
10.1948242
21
3.1460949
0
LINE
8
right_labelLayer
10
10.1948242
20
3.1460949
11
10.1948242
21
3.4500012
0
LINE
8
right_labelLayer
10
10.1948242
20
3.4500012
11
10.2272461
21
3.4500012
0
LINE
8
right_labelLayer
10
10.2272461
20
3.4500012
11
10.2272461
21
3.358009
0
LINE
8
right_labelLayer
10
10.2256836
20
3.3304699
11
10.2276367
21
3.3304699
0
LINE
8
right_labelLayer
10
10.3737305
20
3.2857433
11
10.3737305
21
3.1460949
0
ARC
8
right_labelLayer
10
10.2496608
20
3.285096
40
0.0916493
50
359.672099
51
8.6883268
0
ARC
8
right_labelLayer
10
10.2836331
20
3.2904858
40
0.0572532
50
8.4920283
51
22.6579304
0
ARC
8
right_labelLayer
10
10.3008857
20
3.2976549
40
0.0385701
50
22.7030453
51
42.3417715
0
ARC
8
right_labelLayer
10
10.3028262
20
3.2985279
40
0.0365539
50
43.379189
51
71.5380152
0
ARC
8
right_labelLayer
10
10.2955717
20
3.2782569
40
0.0580807
50
71.0824267
51
84.3683014
0
ARC
8
right_labelLayer
10
10.2923183
20
3.2505971
40
0.0859277
50
84.0192881
51
90.1523112
0
ARC
8
right_labelLayer
10
10.2913911
20
3.2384095
40
0.0981175
50
89.591961
51
100.3590662
0
ARC
8
right_labelLayer
10
10.2844413
20
3.2749305
40
0.0609427
50
100.1057634
51
118.0860621
0
ARC
8
right_labelLayer
10
10.2773749
20
3.288792
40
0.0453877
50
118.4542217
51
139.6719992
0
ARC
8
right_labelLayer
10
10.284472
20
3.2839389
40
0.0539464
50
140.6207269
51
160.5045937
0
ARC
8
right_labelLayer
10
10.3218472
20
3.2701011
40
0.0937986
50
160.1556901
51
171.5323239
0
ARC
8
right_labelLayer
10
10.3823338
20
3.2605136
40
0.1550387
50
171.3193942
51
178.3412452
0
ARC
8
right_labelLayer
10
10.4366003
20
3.2580871
40
0.2093544
50
178.1073217
51
180.0213717
0
ARC
8
right_labelLayer
10
9.9358608
20
3.3576564
40
0.2913854
50
357.8663834
51
0.0693264
0
ARC
8
right_labelLayer
10
10.0349106
20
3.3538665
40
0.1922633
50
354.9809103
51
357.8960847
0
ARC
8
right_labelLayer
10
10.1001281
20
3.348178
40
0.1267982
50
351.9720765
51
354.9632711
0
ARC
8
right_labelLayer
10
10.2825551
20
3.2961162
40
0.0647781
50
119.8320226
51
147.9723259
0
ARC
8
right_labelLayer
10
10.2904584
20
3.2839568
40
0.0792619
50
116.6690746
51
120.4155892
0
ARC
8
right_labelLayer
10
10.2918617
20
3.2802237
40
0.0832287
50
96.6651353
51
116.3788361
0
ARC
8
right_labelLayer
10
10.2950177
20
3.2584468
40
0.1052264
50
89.8926834
51
96.9957399
0
ARC
8
right_labelLayer
10
10.296028
20
3.2321373
40
0.1315382
50
80.6866621
51
90.3542279
0
ARC
8
right_labelLayer
10
10.3042187
20
3.2803162
40
0.0826693
50
65.6015964
51
80.8847039
0
ARC
8
right_labelLayer
10
10.3140549
20
3.3024655
40
0.0584353
50
46.7395464
51
65.4137313
0
ARC
8
right_labelLayer
10
10.3147214
20
3.3045733
40
0.0564517
50
19.2201992
51
45.7659482
0
ARC
8
right_labelLayer
10
10.2821729
20
3.2925069
40
0.0911607
50
6.4731056
51
19.646867
0
ARC
8
right_labelLayer
10
10.233538
20
3.2862476
40
0.1401932
50
359.7939211
51
6.774105
0
LINE
8
right_labelLayer
10
10.5387695
20
3.1728527
11
10.5387695
21
3.148048
0
LINE
8
right_labelLayer
10
10.4426758
20
3.2076183
11
10.4426758
21
3.3349621
0
LINE
8
right_labelLayer
10
10.4426758
20
3.3349621
11
10.4120117
21
3.3349621
0
LINE
8
right_labelLayer
10
10.4120117
20
3.3349621
11
10.4120117
21
3.3505871
0
LINE
8
right_labelLayer
10
10.4120117
20
3.3505871
11
10.4426758
21
3.3640637
0
LINE
8
right_labelLayer
10
10.4426758
20
3.3640637
11
10.4563476
21
3.4097668
0
LINE
8
right_labelLayer
10
10.4563476
20
3.4097668
11
10.4750976
21
3.4097668
0
LINE
8
right_labelLayer
10
10.4750976
20
3.4097668
11
10.4750976
21
3.3601574
0
LINE
8
right_labelLayer
10
10.4750976
20
3.3601574
11
10.537207
21
3.3601574
0
LINE
8
right_labelLayer
10
10.537207
20
3.3601574
11
10.537207
21
3.3349621
0
LINE
8
right_labelLayer
10
10.537207
20
3.3349621
11
10.4750976
21
3.3349621
0
LINE
8
right_labelLayer
10
10.4750976
20
3.3349621
11
10.4750976
21
3.2089855
0
ARC
8
right_labelLayer
10
10.5096936
20
3.275443
40
0.1064968
50
269.881121
51
278.3020978
0
ARC
8
right_labelLayer
10
10.5113909
20
3.262643
40
0.0935859
50
278.4054245
51
279.026822
0
ARC
8
right_labelLayer
10
10.4986194
20
3.34429
40
0.1762258
50
278.9628177
51
280.5068977
0
ARC
8
right_labelLayer
10
10.5102183
20
3.2820314
40
0.112896
50
280.4808493
51
282.6295187
0
ARC
8
right_labelLayer
10
10.5201418
20
3.237975
40
0.0677358
50
282.5866869
51
285.5800748
0
ARC
8
right_labelLayer
10
10.5260642
20
3.2163875
40
0.045351
50
285.6978323
51
286.2694347
0
ARC
8
right_labelLayer
10
10.5251461
20
3.1768618
40
0.0318721
50
287.9849695
51
295.3051367
0
ARC
8
right_labelLayer
10
10.5174497
20
3.2001426
40
0.056392
50
283.3056658
51
288.1191315
0
ARC
8
right_labelLayer
10
10.509325
20
3.2340296
40
0.0912393
50
280.0061995
51
283.373233
0
ARC
8
right_labelLayer
10
10.5036643
20
3.2648549
40
0.1225796
50
279.1903934
51
280.1083759
0
ARC
8
right_labelLayer
10
10.5005505
20
3.2825069
40
0.1405026
50
275.5256702
51
279.2941769
0
ARC
8
right_labelLayer
10
10.5043027
20
3.2433479
40
0.1011643
50
270.8954186
51
275.5460028
0
ARC
8
right_labelLayer
10
10.5047805
20
3.2267094
40
0.0845206
50
270.0031369
51
270.7478361
0
ARC
8
right_labelLayer
10
10.5034763
20
3.2268543
40
0.0846758
50
253.7841298
51
270.8856899
0
ARC
8
right_labelLayer
10
10.4934446
20
3.1926453
40
0.0490265
50
190.3818776
51
253.8770115
0
ARC
8
right_labelLayer
10
10.544571
20
3.2064706
40
0.1019018
50
179.354645
51
192.8484566
0
ARC
8
right_labelLayer
10
10.5403736
20
3.2085762
40
0.0652772
50
179.6407338
51
189.7511717
0
ARC
8
right_labelLayer
10
10.5173318
20
3.2044653
40
0.0418723
50
189.547359
51
205.7883411
0
ARC
8
right_labelLayer
10
10.5078669
20
3.200101
40
0.0314519
50
206.13087
51
221.4081413
0
ARC
8
right_labelLayer
10
10.5068025
20
3.1992938
40
0.03012
50
221.5956481
51
262.3500319
0
ARC
8
right_labelLayer
10
10.5093267
20
3.2122582
40
0.043312
50
261.3236147
51
270.1930865
0
LINE
8
bottom_outsideCutPath
10
16.368
20
24.132
11
16.368
21
23.390375
0
LINE
8
bottom_outsideCutPath
10
16.368
20
23.390375
11
16.25
21
23.390375
0
LINE
8
bottom_outsideCutPath
10
16.25
20
23.390375
11
16.25
21
22.785625
0
LINE
8
bottom_outsideCutPath
10
16.25
20
22.785625
11
16.368
21
22.785625
0
LINE
8
bottom_outsideCutPath
10
16.368
20
22.785625
11
16.368
21
22.180875
0
LINE
8
bottom_outsideCutPath
10
16.368
20
22.180875
11
16.25
21
22.180875
0
LINE
8
bottom_outsideCutPath
10
16.25
20
22.180875
11
16.25
21
21.576125
0
LINE
8
bottom_outsideCutPath
10
16.25
20
21.576125
11
16.368
21
21.576125
0
LINE
8
bottom_outsideCutPath
10
16.368
20
21.576125
11
16.368
21
20.971375
0
LINE
8
bottom_outsideCutPath
10
16.368
20
20.971375
11
16.25
21
20.971375
0
LINE
8
bottom_outsideCutPath
10
16.25
20
20.971375
11
16.25
21
20.366625
0
LINE
8
bottom_outsideCutPath
10
16.25
20
20.366625
11
16.368
21
20.366625
0
LINE
8
bottom_outsideCutPath
10
16.368
20
20.366625
11
16.368
21
19.761875
0
LINE
8
bottom_outsideCutPath
10
16.368
20
19.761875
11
16.25
21
19.761875
0
LINE
8
bottom_outsideCutPath
10
16.25
20
19.761875
11
16.25
21
19.157125
0
LINE
8
bottom_outsideCutPath
10
16.25
20
19.157125
11
16.368
21
19.157125
0
LINE
8
bottom_outsideCutPath
10
16.368
20
19.157125
11
16.368
21
18.552375
0
LINE
8
bottom_outsideCutPath
10
16.368
20
18.552375
11
16.25
21
18.552375
0
LINE
8
bottom_outsideCutPath
10
16.25
20
18.552375
11
16.25
21
17.947625
0
LINE
8
bottom_outsideCutPath
10
16.25
20
17.947625
11
16.368
21
17.947625
0
LINE
8
bottom_outsideCutPath
10
16.368
20
17.947625
11
16.368
21
17.342875
0
LINE
8
bottom_outsideCutPath
10
16.368
20
17.342875
11
16.25
21
17.342875
0
LINE
8
bottom_outsideCutPath
10
16.25
20
17.342875
11
16.25
21
16.738125
0
LINE
8
bottom_outsideCutPath
10
16.25
20
16.738125
11
16.368
21
16.738125
0
LINE
8
bottom_outsideCutPath
10
16.368
20
16.738125
11
16.368
21
16.133375
0
LINE
8
bottom_outsideCutPath
10
16.368
20
16.133375
11
16.25
21
16.133375
0
LINE
8
bottom_outsideCutPath
10
16.25
20
16.133375
11
16.25
21
15.528625
0
LINE
8
bottom_outsideCutPath
10
16.25
20
15.528625
11
16.368
21
15.528625
0
LINE
8
bottom_outsideCutPath
10
16.368
20
15.528625
11
16.368
21
14.923875
0
LINE
8
bottom_outsideCutPath
10
16.368
20
14.923875
11
16.25
21
14.923875
0
LINE
8
bottom_outsideCutPath
10
16.25
20
14.923875
11
16.25
21
14.319125
0
LINE
8
bottom_outsideCutPath
10
16.25
20
14.319125
11
16.368
21
14.319125
0
LINE
8
bottom_outsideCutPath
10
16.368
20
14.319125
11
16.368
21
13.714375
0
LINE
8
bottom_outsideCutPath
10
16.368
20
13.714375
11
16.25
21
13.714375
0
LINE
8
bottom_outsideCutPath
10
16.25
20
13.714375
11
16.25
21
13.109625
0
LINE
8
bottom_outsideCutPath
10
16.25
20
13.109625
11
16.368
21
13.109625
0
LINE
8
bottom_outsideCutPath
10
16.368
20
13.109625
11
16.368
21
12.368
0
LINE
8
bottom_outsideCutPath
10
16.368
20
12.368
11
16.738125
21
12.368
0
LINE
8
bottom_outsideCutPath
10
16.738125
20
12.368
11
16.738125
21
12.25
0
LINE
8
bottom_outsideCutPath
10
16.738125
20
12.25
11
17.342875
21
12.25
0
LINE
8
bottom_outsideCutPath
10
17.342875
20
12.25
11
17.342875
21
12.368
0
LINE
8
bottom_outsideCutPath
10
17.342875
20
12.368
11
17.947625
21
12.368
0
LINE
8
bottom_outsideCutPath
10
17.947625
20
12.368
11
17.947625
21
12.25
0
LINE
8
bottom_outsideCutPath
10
17.947625
20
12.25
11
18.552375
21
12.25
0
LINE
8
bottom_outsideCutPath
10
18.552375
20
12.25
11
18.552375
21
12.368
0
LINE
8
bottom_outsideCutPath
10
18.552375
20
12.368
11
19.157125
21
12.368
0
LINE
8
bottom_outsideCutPath
10
19.157125
20
12.368
11
19.157125
21
12.25
0
LINE
8
bottom_outsideCutPath
10
19.157125
20
12.25
11
19.761875
21
12.25
0
LINE
8
bottom_outsideCutPath
10
19.761875
20
12.25
11
19.761875
21
12.368
0
LINE
8
bottom_outsideCutPath
10
19.761875
20
12.368
11
20.132
21
12.368
0
LINE
8
bottom_outsideCutPath
10
20.132
20
12.368
11
20.132
21
13.109625
0
LINE
8
bottom_outsideCutPath
10
20.132
20
13.109625
11
20.25
21
13.109625
0
LINE
8
bottom_outsideCutPath
10
20.25
20
13.109625
11
20.25
21
13.714375
0
LINE
8
bottom_outsideCutPath
10
20.25
20
13.714375
11
20.132
21
13.714375
0
LINE
8
bottom_outsideCutPath
10
20.132
20
13.714375
11
20.132
21
14.319125
0
LINE
8
bottom_outsideCutPath
10
20.132
20
14.319125
11
20.25
21
14.319125
0
LINE
8
bottom_outsideCutPath
10
20.25
20
14.319125
11
20.25
21
14.923875
0
LINE
8
bottom_outsideCutPath
10
20.25
20
14.923875
11
20.132
21
14.923875
0
LINE
8
bottom_outsideCutPath
10
20.132
20
14.923875
11
20.132
21
15.528625
0
LINE
8
bottom_outsideCutPath
10
20.132
20
15.528625
11
20.25
21
15.528625
0
LINE
8
bottom_outsideCutPath
10
20.25
20
15.528625
11
20.25
21
16.133375
0
LINE
8
bottom_outsideCutPath
10
20.25
20
16.133375
11
20.132
21
16.133375
0
LINE
8
bottom_outsideCutPath
10
20.132
20
16.133375
11
20.132
21
16.738125
0
LINE
8
bottom_outsideCutPath
10
20.132
20
16.738125
11
20.25
21
16.738125
0
LINE
8
bottom_outsideCutPath
10
20.25
20
16.738125
11
20.25
21
17.342875
0
LINE
8
bottom_outsideCutPath
10
20.25
20
17.342875
11
20.132
21
17.342875
0
LINE
8
bottom_outsideCutPath
10
20.132
20
17.342875
11
20.132
21
17.947625
0
LINE
8
bottom_outsideCutPath
10
20.132
20
17.947625
11
20.25
21
17.947625
0
LINE
8
bottom_outsideCutPath
10
20.25
20
17.947625
11
20.25
21
18.552375
0
LINE
8
bottom_outsideCutPath
10
20.25
20
18.552375
11
20.132
21
18.552375
0
LINE
8
bottom_outsideCutPath
10
20.132
20
18.552375
11
20.132
21
19.157125
0
LINE
8
bottom_outsideCutPath
10
20.132
20
19.157125
11
20.25
21
19.157125
0
LINE
8
bottom_outsideCutPath
10
20.25
20
19.157125
11
20.25
21
19.761875
0
LINE
8
bottom_outsideCutPath
10
20.25
20
19.761875
11
20.132
21
19.761875
0
LINE
8
bottom_outsideCutPath
10
20.132
20
19.761875
11
20.132
21
20.366625
0
LINE
8
bottom_outsideCutPath
10
20.132
20
20.366625
11
20.25
21
20.366625
0
LINE
8
bottom_outsideCutPath
10
20.25
20
20.366625
11
20.25
21
20.971375
0
LINE
8
bottom_outsideCutPath
10
20.25
20
20.971375
11
20.132
21
20.971375
0
LINE
8
bottom_outsideCutPath
10
20.132
20
20.971375
11
20.132
21
21.576125
0
LINE
8
bottom_outsideCutPath
10
20.132
20
21.576125
11
20.25
21
21.576125
0
LINE
8
bottom_outsideCutPath
10
20.25
20
21.576125
11
20.25
21
22.180875
0
LINE
8
bottom_outsideCutPath
10
20.25
20
22.180875
11
20.132
21
22.180875
0
LINE
8
bottom_outsideCutPath
10
20.132
20
22.180875
11
20.132
21
22.785625
0
LINE
8
bottom_outsideCutPath
10
20.132
20
22.785625
11
20.25
21
22.785625
0
LINE
8
bottom_outsideCutPath
10
20.25
20
22.785625
11
20.25
21
23.390375
0
LINE
8
bottom_outsideCutPath
10
20.25
20
23.390375
11
20.132
21
23.390375
0
LINE
8
bottom_outsideCutPath
10
20.132
20
23.390375
11
20.132
21
24.132
0
LINE
8
bottom_outsideCutPath
10
20.132
20
24.132
11
19.761875
21
24.132
0
LINE
8
bottom_outsideCutPath
10
19.761875
20
24.132
11
19.761875
21
24.25
0
LINE
8
bottom_outsideCutPath
10
19.761875
20
24.25
11
19.157125
21
24.25
0
LINE
8
bottom_outsideCutPath
10
19.157125
20
24.25
11
19.157125
21
24.132
0
LINE
8
bottom_outsideCutPath
10
19.157125
20
24.132
11
18.552375
21
24.132
0
LINE
8
bottom_outsideCutPath
10
18.552375
20
24.132
11
18.552375
21
24.25
0
LINE
8
bottom_outsideCutPath
10
18.552375
20
24.25
11
17.947625
21
24.25
0
LINE
8
bottom_outsideCutPath
10
17.947625
20
24.25
11
17.947625
21
24.132
0
LINE
8
bottom_outsideCutPath
10
17.947625
20
24.132
11
17.342875
21
24.132
0
LINE
8
bottom_outsideCutPath
10
17.342875
20
24.132
11
17.342875
21
24.25
0
LINE
8
bottom_outsideCutPath
10
17.342875
20
24.25
11
16.738125
21
24.25
0
LINE
8
bottom_outsideCutPath
10
16.738125
20
24.25
11
16.738125
21
24.132
0
LINE
8
bottom_outsideCutPath
10
16.738125
20
24.132
11
16.368
21
24.132
0
LINE
8
bottom_labelLayer
10
16.9988263
20
18.0050882
11
16.9941388
21
18.0050882
0
LINE
8
bottom_labelLayer
10
16.9941388
20
18.0050882
11
16.9804669
21
17.9500101
0
LINE
8
bottom_labelLayer
10
16.9804669
20
17.9500101
11
16.9339825
21
17.9500101
0
LINE
8
bottom_labelLayer
10
16.9339825
20
17.9500101
11
16.9339825
21
18.5578226
0
LINE
8
bottom_labelLayer
10
16.9339825
20
18.5578226
11
16.9988263
21
18.5578226
0
LINE
8
bottom_labelLayer
10
16.9988263
20
18.5578226
11
16.9988263
21
18.4101664
0
LINE
8
bottom_labelLayer
10
16.9957013
20
18.3211039
11
16.9988263
21
18.3211039
0
ARC
8
bottom_labelLayer
10
17.1351459
20
18.1869891
40
0.1981868
50
74.2392945
51
90.5621875
0
ARC
8
bottom_labelLayer
10
17.1482508
20
18.235065
40
0.1483596
50
38.5633265
51
74.0670028
0
ARC
8
bottom_labelLayer
10
17.1145281
20
18.2088436
40
0.1910744
50
16.4709663
51
38.4076954
0
ARC
8
bottom_labelLayer
10
17.0173806
20
18.1783803
40
0.2928773
50
5.1336614
51
16.7974776
0
ARC
8
bottom_labelLayer
10
16.8946745
20
18.165348
40
0.4162621
50
359.8782133
51
5.4089932
0
ARC
8
bottom_labelLayer
10
16.9307657
20
18.1622191
40
0.3801766
50
350.6560109
51
0.3382065
0
ARC
8
bottom_labelLayer
10
17.0632919
20
18.1396756
40
0.2457497
50
335.830575
51
350.8255813
0
ARC
8
bottom_labelLayer
10
17.1215898
20
18.1145135
40
0.1822623
50
321.3163636
51
335.5435677
0
ARC
8
bottom_labelLayer
10
17.1438824
20
18.0963498
40
0.1535079
50
274.0639876
51
321.4079794
0
ARC
8
bottom_labelLayer
10
17.1334964
20
18.1621482
40
0.2199509
50
269.9231219
51
275.5481192
0
ARC
8
bottom_labelLayer
10
17.1321077
20
18.1388791
40
0.1966845
50
255.7755261
51
270.3185795
0
ARC
8
bottom_labelLayer
10
17.1265008
20
18.1139607
40
0.1711537
50
245.980847
51
255.5451934
0
ARC
8
bottom_labelLayer
10
17.115623
20
18.0886608
40
0.1436172
50
215.5851757
51
245.8363402
0
ARC
8
bottom_labelLayer
10
15.6468937
20
18.4090178
40
1.3519331
50
358.1125465
51
0.0486757
0
ARC
8
bottom_labelLayer
10
16.0233309
20
18.3963802
40
0.9752837
50
355.7237176
51
358.1261928
0
ARC
8
bottom_labelLayer
10
16.1835196
20
18.3853678
40
0.8147204
50
355.4758903
51
355.6560018
0
ARC
8
bottom_labelLayer
10
17.1197566
20
18.236776
40
0.1474291
50
95.1833717
51
145.1109463
0
ARC
8
bottom_labelLayer
10
17.1327156
20
18.1636962
40
0.2214706
50
89.87435
51
96.8143894
0
ARC
8
bottom_labelLayer
10
17.1224687
20
18.1486609
40
0.1822136
50
89.5731237
51
100.7325835
0
ARC
8
bottom_labelLayer
10
17.1089797
20
18.2168092
40
0.1127469
50
100.4469439
51
119.6699918
0
ARC
8
bottom_labelLayer
10
17.096472
20
18.2401946
40
0.086239
50
120.1403454
51
142.4245926
0
ARC
8
bottom_labelLayer
10
17.1171686
20
18.2265043
40
0.1110046
50
143.3385633
51
161.2557465
0
ARC
8
bottom_labelLayer
10
17.2037182
20
18.1957788
40
0.2028414
50
160.893154
51
171.2332456
0
ARC
8
bottom_labelLayer
10
17.3481758
20
18.1724746
40
0.3491648
50
171.066718
51
177.845551
0
ARC
8
bottom_labelLayer
10
17.4984852
20
18.1648294
40
0.4996592
50
177.617462
51
180.0419915
0
ARC
8
bottom_labelLayer
10
17.4276022
20
18.1627908
40
0.4287792
50
179.776523
51
185.7072608
0
ARC
8
bottom_labelLayer
10
17.2585559
20
18.1453773
40
0.2588397
50
185.5929881
51
194.2045983
0
ARC
8
bottom_labelLayer
10
17.1502447
20
18.1172687
40
0.1469441
50
193.942861
51
208.021548
0
ARC
8
bottom_labelLayer
10
17.106417
20
18.0949714
40
0.097783
50
208.5530178
51
217.5614643
0
ARC
8
bottom_labelLayer
10
17.1028619
20
18.0934957
40
0.0940706
50
218.1689967
51
253.8047235
0
ARC
8
bottom_labelLayer
10
17.120312
20
18.1473009
40
0.1506178
50
253.1387203
51
266.8478494
0
ARC
8
bottom_labelLayer
10
17.1252061
20
18.2050321
40
0.2085378
50
266.3774293
51
270.0502001
0
ARC
8
bottom_labelLayer
10
17.126772
20
18.1257555
40
0.1292684
50
269.3869182
51
285.8627073
0
ARC
8
bottom_labelLayer
10
17.1363756
20
18.0910437
40
0.0932536
50
286.0162809
51
326.84976
0
ARC
8
bottom_labelLayer
10
17.0900259
20
18.1217496
40
0.148851
50
326.7101975
51
343.6661388
0
ARC
8
bottom_labelLayer
10
17.0032614
20
18.1482637
40
0.2395725
50
343.4167546
51
353.6367811
0
ARC
8
bottom_labelLayer
10
16.8721979
20
18.1638143
40
0.371553
50
353.4935336
51
0.2205464
0
ARC
8
bottom_labelLayer
10
16.8606126
20
18.1667936
40
0.3831387
50
359.7683457
51
6.3091706
0
ARC
8
bottom_labelLayer
10
17.0049544
20
18.1833542
40
0.237852
50
6.1650784
51
16.0397935
0
ARC
8
bottom_labelLayer
10
17.0979223
20
18.2107533
40
0.1409344
50
15.7775879
51
32.0155698
0
ARC
8
bottom_labelLayer
10
17.1271615
20
18.2275269
40
0.1072574
50
32.698695
51
35.5277214
0
ARC
8
bottom_labelLayer
10
17.1375066
20
18.234887
40
0.0945613
50
35.5408321
51
79.8012542
0
ARC
8
bottom_labelLayer
10
17.1248078
20
18.1809012
40
0.1499715
50
78.6782316
51
90.3749716
0
ARC
8
bottom_labelLayer
10
17.4588068
20
18.1622051
40
0.334949
50
349.1763443
51
0.3862683
0
ARC
8
bottom_labelLayer
10
17.5715793
20
18.139725
40
0.219963
50
330.2506036
51
349.4115498
0
ARC
8
bottom_labelLayer
10
17.6062752
20
18.1216923
40
0.1808988
50
318.1444194
51
329.7564337
0
ARC
8
bottom_labelLayer
10
17.6125467
20
18.1166677
40
0.1728754
50
278.8960073
51
317.9978505
0
ARC
8
bottom_labelLayer
10
17.5964081
20
18.1939843
40
0.2517892
50
269.7502702
51
279.8035482
0
ARC
8
bottom_labelLayer
10
17.5937913
20
18.1504249
40
0.2082329
50
253.543622
51
270.4180554
0
ARC
8
bottom_labelLayer
10
17.5868568
20
18.1236061
40
0.1805508
50
238.811443
51
253.2431052
0
ARC
8
bottom_labelLayer
10
17.5846228
20
18.1191121
40
0.1755499
50
207.7947236
51
238.675642
0
ARC
8
bottom_labelLayer
10
17.6168055
20
18.1388157
40
0.2132212
50
205.6570391
51
208.4459165
0
ARC
8
bottom_labelLayer
10
17.6414506
20
18.149075
40
0.2398827
50
188.9104529
51
205.3171201
0
ARC
8
bottom_labelLayer
10
17.7247627
20
18.1631863
40
0.3243765
50
179.7744522
51
189.0935728
0
ARC
8
bottom_labelLayer
10
17.7370666
20
18.1667436
40
0.3366855
50
169.244328
51
180.3880586
0
ARC
8
bottom_labelLayer
10
17.6227284
20
18.1893443
40
0.2201399
50
150.7111349
51
169.4696653
0
ARC
8
bottom_labelLayer
10
17.5862342
20
18.2080853
40
0.179149
50
138.1762471
51
150.2287576
0
ARC
8
bottom_labelLayer
10
17.5801591
20
18.2127466
40
0.1715143
50
99.1759624
51
137.9833325
0
ARC
8
bottom_labelLayer
10
17.5968699
20
18.1341033
40
0.2518471
50
89.7326528
51
100.0759795
0
ARC
8
bottom_labelLayer
10
17.6002092
20
18.1680671
40
0.2178912
50
73.5221181
51
90.5690812
0
ARC
8
bottom_labelLayer
10
17.6129871
20
18.2144918
40
0.1697515
50
41.1447204
51
73.2132889
0
ARC
8
bottom_labelLayer
10
17.5885961
20
18.193528
40
0.2019127
50
13.5015179
51
41.0704863
0
ARC
8
bottom_labelLayer
10
17.4943491
20
18.1688663
40
0.2993192
50
1.1278154
51
13.8797899
0
ARC
8
bottom_labelLayer
10
17.4137132
20
18.1645244
40
0.3800349
50
359.9907787
51
1.5430191
0
ARC
8
bottom_labelLayer
10
17.7959329
20
18.1627781
40
0.3283609
50
179.7059533
51
187.916232
0
ARC
8
bottom_labelLayer
10
17.6755114
20
18.1454792
40
0.2067053
50
187.7640742
51
200.0974121
0
ARC
8
bottom_labelLayer
10
17.6091616
20
18.1211708
40
0.1360427
50
200.085069
51
216.9130132
0
ARC
8
bottom_labelLayer
10
17.5849299
20
18.1038684
40
0.106279
50
217.3009009
51
261.7098175
0
ARC
8
bottom_labelLayer
10
17.596177
20
18.1575397
40
0.1610467
50
260.503336
51
270.2476757
0
ARC
8
bottom_labelLayer
10
17.5983238
20
18.147105
40
0.1506175
50
269.4481605
51
284.7253533
0
ARC
8
bottom_labelLayer
10
17.6102476
20
18.1028822
40
0.1048167
50
284.5660678
51
322.63358
0
ARC
8
bottom_labelLayer
10
17.5823735
20
18.1230217
40
0.1391961
50
323.0085069
51
342.6391979
0
ARC
8
bottom_labelLayer
10
17.502636
20
18.1490826
40
0.2230799
50
342.3615719
51
353.7538372
0
ARC
8
bottom_labelLayer
10
17.3850138
20
18.163261
40
0.3415489
50
353.5362747
51
0.2016839
0
ARC
8
bottom_labelLayer
10
17.4030335
20
18.1661159
40
0.3235314
50
359.7073289
51
7.8973263
0
ARC
8
bottom_labelLayer
10
17.5215139
20
18.1831011
40
0.2038416
50
7.7440828
51
20.0691926
0
ARC
8
bottom_labelLayer
10
17.5875342
20
18.2073277
40
0.1335167
50
20.0261614
51
37.4346543
0
ARC
8
bottom_labelLayer
10
17.6094467
20
18.2228751
40
0.1066711
50
37.9579729
51
80.4003659
0
ARC
8
bottom_labelLayer
10
17.5969992
20
18.1673368
40
0.1635352
50
79.3451919
51
90.3178771
0
ARC
8
bottom_labelLayer
10
17.594693
20
18.1765507
40
0.1543251
50
89.4806306
51
103.8801225
0
ARC
8
bottom_labelLayer
10
17.5817256
20
18.2259337
40
0.1032759
50
103.4683454
51
142.3119643
0
ARC
8
bottom_labelLayer
10
17.6069357
20
18.2082041
40
0.1340722
50
142.902633
51
162.3748601
0
ARC
8
bottom_labelLayer
10
17.6863689
20
18.1817338
40
0.2177947
50
162.0654193
51
173.1675171
0
ARC
8
bottom_labelLayer
10
17.8102548
20
18.1659351
40
0.3426817
50
173.0089817
51
180.2460994
0
LINE
8
bottom_labelLayer
10
18.104295
20
18.0035257
11
18.104295
21
17.9539164
0
LINE
8
bottom_labelLayer
10
17.9121075
20
18.073057
11
17.9121075
21
18.3277445
0
LINE
8
bottom_labelLayer
10
17.9121075
20
18.3277445
11
17.8507794
21
18.3277445
0
LINE
8
bottom_labelLayer
10
17.8507794
20
18.3277445
11
17.8507794
21
18.3589945
0
LINE
8
bottom_labelLayer
10
17.8507794
20
18.3589945
11
17.9121075
21
18.3859476
0
LINE
8
bottom_labelLayer
10
17.9121075
20
18.3859476
11
17.9394513
21
18.4773539
0
LINE
8
bottom_labelLayer
10
17.9394513
20
18.4773539
11
17.9769513
21
18.4773539
0
LINE
8
bottom_labelLayer
10
17.9769513
20
18.4773539
11
17.9769513
21
18.3781351
0
LINE
8
bottom_labelLayer
10
17.9769513
20
18.3781351
11
18.10117
21
18.3781351
0
LINE
8
bottom_labelLayer
10
18.10117
20
18.3781351
11
18.10117
21
18.3277445
0
LINE
8
bottom_labelLayer
10
18.10117
20
18.3277445
11
17.9769513
21
18.3277445
0
LINE
8
bottom_labelLayer
10
17.9769513
20
18.3277445
11
17.9769513
21
18.0757914
0
ARC
8
bottom_labelLayer
10
18.0461473
20
18.2086688
40
0.2129561
50
269.879997
51
278.3024663
0
ARC
8
bottom_labelLayer
10
18.0483303
20
18.1911269
40
0.1952829
50
278.4118817
51
279.0074698
0
ARC
8
bottom_labelLayer
10
18.0243278
20
18.3444667
40
0.3504897
50
278.958281
51
280.5110044
0
ARC
8
bottom_labelLayer
10
18.0471017
20
18.2223065
40
0.2262248
50
280.4839747
51
282.6285311
0
ARC
8
bottom_labelLayer
10
18.0670213
20
18.133847
40
0.1355505
50
282.5871425
51
285.5787887
0
ARC
8
bottom_labelLayer
10
18.0772696
20
18.0961371
40
0.0964739
50
285.7306322
51
286.2680348
0
ARC
8
bottom_labelLayer
10
18.0770314
20
18.0115793
40
0.0637834
50
287.9895683
51
295.3052585
0
ARC
8
bottom_labelLayer
10
18.0616334
20
18.0581726
40
0.1128546
50
283.3086929
51
288.119149
0
ARC
8
bottom_labelLayer
10
18.0454159
20
18.1258281
40
0.1824264
50
280.0059493
51
283.3739479
0
ARC
8
bottom_labelLayer
10
18.034502
20
18.1849905
40
0.2425858
50
279.1888755
51
280.1165972
0
ARC
8
bottom_labelLayer
10
18.0278541
20
18.22286
40
0.2810312
50
275.5257553
51
279.2939123
0
ARC
8
bottom_labelLayer
10
18.0353754
20
18.1442698
40
0.2020821
50
270.8925541
51
275.5488149
0
ARC
8
bottom_labelLayer
10
18.0363323
20
18.1066073
40
0.1644097
50
269.9979137
51
270.7635923
0
ARC
8
bottom_labelLayer
10
18.0337091
20
18.1115382
40
0.1693608
50
253.7848156
51
270.8854429
0
ARC
8
bottom_labelLayer
10
18.0136447
20
18.0431107
40
0.0980525
50
190.3817828
51
253.8772612
0
ARC
8
bottom_labelLayer
10
18.1159105
20
18.0707621
40
0.2038158
50
179.354861
51
192.8478523
0
ARC
8
bottom_labelLayer
10
18.1075268
20
18.0749758
40
0.1305781
50
179.642129
51
189.7507278
0
ARC
8
bottom_labelLayer
10
18.0614289
20
18.0667532
40
0.0837542
50
189.5478405
51
205.7869718
0
ARC
8
bottom_labelLayer
10
18.0424821
20
18.0580164
40
0.0628944
50
206.1291188
51
221.4087188
0
ARC
8
bottom_labelLayer
10
18.0403604
20
18.0564065
40
0.0602386
50
221.595082
51
262.3504407
0
ARC
8
bottom_labelLayer
10
18.0454107
20
18.0823744
40
0.0866616
50
261.3264892
51
270.1920986
0
LINE
8
bottom_labelLayer
10
18.3867169
20
18.0035257
11
18.3867169
21
17.9539164
0
LINE
8
bottom_labelLayer
10
18.1945294
20
18.073057
11
18.1945294
21
18.3277445
0
LINE
8
bottom_labelLayer
10
18.1945294
20
18.3277445
11
18.1332013
21
18.3277445
0
LINE
8
bottom_labelLayer
10
18.1332013
20
18.3277445
11
18.1332013
21
18.3589945
0
LINE
8
bottom_labelLayer
10
18.1332013
20
18.3589945
11
18.1945294
21
18.3859476
0
LINE
8
bottom_labelLayer
10
18.1945294
20
18.3859476
11
18.2218732
21
18.4773539
0
LINE
8
bottom_labelLayer
10
18.2218732
20
18.4773539
11
18.2593732
21
18.4773539
0
LINE
8
bottom_labelLayer
10
18.2593732
20
18.4773539
11
18.2593732
21
18.3781351
0
LINE
8
bottom_labelLayer
10
18.2593732
20
18.3781351
11
18.3835919
21
18.3781351
0
LINE
8
bottom_labelLayer
10
18.3835919
20
18.3781351
11
18.3835919
21
18.3277445
0
LINE
8
bottom_labelLayer
10
18.3835919
20
18.3277445
11
18.2593732
21
18.3277445
0
LINE
8
bottom_labelLayer
10
18.2593732
20
18.3277445
11
18.2593732
21
18.0757914
0
ARC
8
bottom_labelLayer
10
18.3285692
20
18.2086688
40
0.2129561
50
269.879997
51
278.3024663
0
ARC
8
bottom_labelLayer
10
18.3307522
20
18.1911269
40
0.1952829
50
278.4118817
51
279.0074698
0
ARC
8
bottom_labelLayer
10
18.3067497
20
18.3444667
40
0.3504897
50
278.958281
51
280.5110044
0
ARC
8
bottom_labelLayer
10
18.3295236
20
18.2223065
40
0.2262248
50
280.4839747
51
282.6285311
0
ARC
8
bottom_labelLayer
10
18.3494432
20
18.133847
40
0.1355505
50
282.5871425
51
285.5787887
0
ARC
8
bottom_labelLayer
10
18.3596915
20
18.0961371
40
0.0964739
50
285.7306322
51
286.2680348
0
ARC
8
bottom_labelLayer
10
18.3594533
20
18.0115793
40
0.0637834
50
287.9895683
51
295.3052585
0
ARC
8
bottom_labelLayer
10
18.3440552
20
18.0581726
40
0.1128546
50
283.3086929
51
288.119149
0
ARC
8
bottom_labelLayer
10
18.3278378
20
18.1258281
40
0.1824264
50
280.0059493
51
283.3739479
0
ARC
8
bottom_labelLayer
10
18.3169238
20
18.1849905
40
0.2425858
50
279.1888755
51
280.1165972
0
ARC
8
bottom_labelLayer
10
18.310276
20
18.22286
40
0.2810312
50
275.5257553
51
279.2939123
0
ARC
8
bottom_labelLayer
10
18.3177973
20
18.1442698
40
0.2020821
50
270.8925541
51
275.5488149
0
ARC
8
bottom_labelLayer
10
18.3187541
20
18.1066073
40
0.1644097
50
269.9979137
51
270.7635923
0
ARC
8
bottom_labelLayer
10
18.316131
20
18.1115382
40
0.1693608
50
253.7848156
51
270.8854429
0
ARC
8
bottom_labelLayer
10
18.2960665
20
18.0431107
40
0.0980525
50
190.3817828
51
253.8772612
0
ARC
8
bottom_labelLayer
10
18.3983324
20
18.0707621
40
0.2038158
50
179.354861
51
192.8478523
0
ARC
8
bottom_labelLayer
10
18.3899487
20
18.0749758
40
0.1305781
50
179.642129
51
189.7507278
0
ARC
8
bottom_labelLayer
10
18.3438508
20
18.0667532
40
0.0837542
50
189.5478405
51
205.7869718
0
ARC
8
bottom_labelLayer
10
18.324904
20
18.0580164
40
0.0628944
50
206.1291188
51
221.4087188
0
ARC
8
bottom_labelLayer
10
18.3227823
20
18.0564065
40
0.0602386
50
221.595082
51
262.3504407
0
ARC
8
bottom_labelLayer
10
18.3278326
20
18.0823744
40
0.0866616
50
261.3264892
51
270.1920986
0
ARC
8
bottom_labelLayer
10
18.5068537
20
18.1622051
40
0.334949
50
349.1763443
51
0.3862683
0
ARC
8
bottom_labelLayer
10
18.6196262
20
18.139725
40
0.219963
50
330.2506036
51
349.4115498
0
ARC
8
bottom_labelLayer
10
18.6543221
20
18.1216923
40
0.1808988
50
318.1444194
51
329.7564337
0
ARC
8
bottom_labelLayer
10
18.6605935
20
18.1166677
40
0.1728754
50
278.8960073
51
317.9978505
0
ARC
8
bottom_labelLayer
10
18.644455
20
18.1939843
40
0.2517892
50
269.7502702
51
279.8035482
0
ARC
8
bottom_labelLayer
10
18.6418382
20
18.1504249
40
0.2082329
50
253.543622
51
270.4180554
0
ARC
8
bottom_labelLayer
10
18.6349037
20
18.1236061
40
0.1805508
50
238.811443
51
253.2431052
0
ARC
8
bottom_labelLayer
10
18.6326697
20
18.1191121
40
0.1755499
50
207.7947236
51
238.675642
0
ARC
8
bottom_labelLayer
10
18.6648523
20
18.1388157
40
0.2132212
50
205.6570391
51
208.4459165
0
ARC
8
bottom_labelLayer
10
18.6894975
20
18.149075
40
0.2398827
50
188.9104529
51
205.3171201
0
ARC
8
bottom_labelLayer
10
18.7728096
20
18.1631863
40
0.3243765
50
179.7744522
51
189.0935728
0
ARC
8
bottom_labelLayer
10
18.7851135
20
18.1667436
40
0.3366855
50
169.244328
51
180.3880586
0
ARC
8
bottom_labelLayer
10
18.6707753
20
18.1893443
40
0.2201399
50
150.7111349
51
169.4696653
0
ARC
8
bottom_labelLayer
10
18.6342811
20
18.2080853
40
0.179149
50
138.1762471
51
150.2287576
0
ARC
8
bottom_labelLayer
10
18.628206
20
18.2127466
40
0.1715143
50
99.1759624
51
137.9833325
0
ARC
8
bottom_labelLayer
10
18.6449168
20
18.1341033
40
0.2518471
50
89.7326528
51
100.0759795
0
ARC
8
bottom_labelLayer
10
18.648256
20
18.1680671
40
0.2178912
50
73.5221181
51
90.5690812
0
ARC
8
bottom_labelLayer
10
18.661034
20
18.2144918
40
0.1697515
50
41.1447204
51
73.2132889
0
ARC
8
bottom_labelLayer
10
18.636643
20
18.193528
40
0.2019127
50
13.5015179
51
41.0704863
0
ARC
8
bottom_labelLayer
10
18.542396
20
18.1688663
40
0.2993192
50
1.1278154
51
13.8797899
0
ARC
8
bottom_labelLayer
10
18.4617601
20
18.1645244
40
0.3800349
50
359.9907787
51
1.5430191
0
ARC
8
bottom_labelLayer
10
18.8439798
20
18.1627781
40
0.3283609
50
179.7059533
51
187.916232
0
ARC
8
bottom_labelLayer
10
18.7235583
20
18.1454792
40
0.2067053
50
187.7640742
51
200.0974121
0
ARC
8
bottom_labelLayer
10
18.6572085
20
18.1211708
40
0.1360427
50
200.085069
51
216.9130132
0
ARC
8
bottom_labelLayer
10
18.6329767
20
18.1038684
40
0.106279
50
217.3009009
51
261.7098175
0
ARC
8
bottom_labelLayer
10
18.6442239
20
18.1575397
40
0.1610467
50
260.503336
51
270.2476757
0
ARC
8
bottom_labelLayer
10
18.6463707
20
18.147105
40
0.1506175
50
269.4481605
51
284.7253533
0
ARC
8
bottom_labelLayer
10
18.6582945
20
18.1028822
40
0.1048167
50
284.5660678
51
322.63358
0
ARC
8
bottom_labelLayer
10
18.6304204
20
18.1230217
40
0.1391961
50
323.0085069
51
342.6391979
0
ARC
8
bottom_labelLayer
10
18.5506828
20
18.1490826
40
0.2230799
50
342.3615719
51
353.7538372
0
ARC
8
bottom_labelLayer
10
18.4330606
20
18.163261
40
0.3415489
50
353.5362747
51
0.2016839
0
ARC
8
bottom_labelLayer
10
18.4510803
20
18.1661159
40
0.3235314
50
359.7073289
51
7.8973263
0
ARC
8
bottom_labelLayer
10
18.5695608
20
18.1831011
40
0.2038416
50
7.7440828
51
20.0691926
0
ARC
8
bottom_labelLayer
10
18.6355811
20
18.2073277
40
0.1335167
50
20.0261614
51
37.4346543
0
ARC
8
bottom_labelLayer
10
18.6574936
20
18.2228751
40
0.1066711
50
37.9579729
51
80.4003659
0
ARC
8
bottom_labelLayer
10
18.6450461
20
18.1673368
40
0.1635352
50
79.3451919
51
90.3178771
0
ARC
8
bottom_labelLayer
10
18.6427399
20
18.1765507
40
0.1543251
50
89.4806306
51
103.8801225
0
ARC
8
bottom_labelLayer
10
18.6297725
20
18.2259337
40
0.1032759
50
103.4683454
51
142.3119643
0
ARC
8
bottom_labelLayer
10
18.6549826
20
18.2082041
40
0.1340722
50
142.902633
51
162.3748601
0
ARC
8
bottom_labelLayer
10
18.7344158
20
18.1817338
40
0.2177947
50
162.0654193
51
173.1675171
0
ARC
8
bottom_labelLayer
10
18.8583017
20
18.1659351
40
0.3426817
50
173.0089817
51
180.2460994
0
LINE
8
bottom_labelLayer
10
19.5660138
20
17.9500101
11
19.50117
21
17.9500101
0
LINE
8
bottom_labelLayer
10
19.50117
20
17.9500101
11
19.50117
21
18.2285257
0
LINE
8
bottom_labelLayer
10
19.2929669
20
18.1890726
11
19.2929669
21
17.9500101
0
LINE
8
bottom_labelLayer
10
19.2929669
20
17.9500101
11
19.2281232
21
17.9500101
0
LINE
8
bottom_labelLayer
10
19.2281232
20
17.9500101
11
19.2281232
21
18.2285257
0
LINE
8
bottom_labelLayer
10
19.0203107
20
18.1746195
11
19.0203107
21
17.9500101
0
LINE
8
bottom_labelLayer
10
19.0203107
20
17.9500101
11
18.9554669
21
17.9500101
0
LINE
8
bottom_labelLayer
10
18.9554669
20
17.9500101
11
18.9554669
21
18.3781351
0
LINE
8
bottom_labelLayer
10
18.9554669
20
18.3781351
11
19.0082013
21
18.3781351
0
LINE
8
bottom_labelLayer
10
19.0082013
20
18.3781351
11
19.0187482
21
18.3195414
0
LINE
8
bottom_labelLayer
10
19.0187482
20
18.3195414
11
19.0218732
21
18.3195414
0
LINE
8
bottom_labelLayer
10
19.2796857
20
18.3132914
11
19.2828107
21
18.3132914
0
LINE
8
bottom_labelLayer
10
19.5660138
20
18.229307
11
19.5660138
21
17.9500101
0
ARC
8
bottom_labelLayer
10
19.309883
20
18.2295445
40
0.1912897
50
359.6948437
51
8.1473588
0
ARC
8
bottom_labelLayer
10
19.3803453
20
18.2399739
40
0.1200611
50
7.9859536
51
20.795242
0
ARC
8
bottom_labelLayer
10
19.4192837
20
18.25489
40
0.0783638
50
20.7073918
51
40.0212969
0
ARC
8
bottom_labelLayer
10
19.4278311
20
18.260483
40
0.0682322
50
41.0403767
51
73.1793757
0
ARC
8
bottom_labelLayer
10
19.4154649
20
18.223075
40
0.1076227
50
72.6404831
51
86.2560783
0
ARC
8
bottom_labelLayer
10
19.4115037
20
18.1802992
40
0.1505705
50
85.8148509
51
90.0675276
0
ARC
8
bottom_labelLayer
10
19.4100502
20
18.1640294
40
0.166845
50
89.5617763
51
101.2963924
0
ARC
8
bottom_labelLayer
10
19.397485
20
18.2241813
40
0.1053984
50
101.0034155
51
121.7838585
0
ARC
8
bottom_labelLayer
10
19.3879334
20
18.2412359
40
0.0858747
50
122.3601472
51
140.2878515
0
ARC
8
bottom_labelLayer
10
19.4051183
20
18.2286367
40
0.1071521
50
140.9764833
51
161.1700397
0
ARC
8
bottom_labelLayer
10
19.4698859
20
18.2055889
40
0.1758947
50
160.8736565
51
172.526779
0
ARC
8
bottom_labelLayer
10
19.5780619
20
18.1906494
40
0.2850958
50
172.377472
51
180.1830784
0
ARC
8
bottom_labelLayer
10
19.8458962
20
18.1889071
40
0.5529293
50
179.9138565
51
179.9828458
0
ARC
8
bottom_labelLayer
10
19.0368362
20
18.2295445
40
0.1912897
50
359.6948437
51
8.1473588
0
ARC
8
bottom_labelLayer
10
19.1072985
20
18.2399739
40
0.1200611
50
7.9859536
51
20.795242
0
ARC
8
bottom_labelLayer
10
19.1462368
20
18.25489
40
0.0783638
50
20.7073918
51
40.0212969
0
ARC
8
bottom_labelLayer
10
19.1549616
20
18.2606048
40
0.0680184
50
41.0610995
51
72.8994877
0
ARC
8
bottom_labelLayer
10
19.1423643
20
18.2230996
40
0.1075745
50
72.3604224
51
85.9565216
0
ARC
8
bottom_labelLayer
10
19.1380966
20
18.1789591
40
0.1519106
50
85.5248257
51
90.0783821
0
ARC
8
bottom_labelLayer
10
19.1366453
20
18.1698127
40
0.1610616
50
89.5576526
51
101.4829227
0
ARC
8
bottom_labelLayer
10
19.1242823
20
18.2277381
40
0.1018362
50
101.1543594
51
123.0655845
0
ARC
8
bottom_labelLayer
10
19.1158793
20
18.2423749
40
0.0849903
50
123.7018097
51
142.3023089
0
ARC
8
bottom_labelLayer
10
19.1355623
20
18.2290216
40
0.1087398
50
143.077037
51
161.3916066
0
ARC
8
bottom_labelLayer
10
19.214906
20
18.2009986
40
0.1928816
50
161.0233829
51
171.4466388
0
ARC
8
bottom_labelLayer
10
19.3462221
20
18.1804283
40
0.3257976
50
171.3040381
51
178.3505439
0
ARC
8
bottom_labelLayer
10
19.4717531
20
18.174819
40
0.4514425
50
178.0975148
51
180.0253174
0
ARC
8
bottom_labelLayer
10
19.1317274
20
18.2549413
40
0.1274406
50
117.1209273
51
149.5422433
0
ARC
8
bottom_labelLayer
10
19.1447327
20
18.2318274
40
0.1539454
50
93.8340643
51
117.5074044
0
ARC
8
bottom_labelLayer
10
19.1483259
20
18.1999824
40
0.1859652
50
89.9661739
51
94.282579
0
ARC
8
bottom_labelLayer
10
19.1504783
20
18.1736609
40
0.2122965
50
77.5570672
51
90.5512829
0
ARC
8
bottom_labelLayer
10
19.1701781
20
18.2583892
40
0.1253177
50
52.7025587
51
78.0055663
0
ARC
8
bottom_labelLayer
10
19.177195
20
18.2714452
40
0.1107042
50
22.2098344
51
51.4968766
0
ARC
8
bottom_labelLayer
10
19.4002772
20
18.2459714
40
0.1353897
50
119.4040728
51
150.1830137
0
ARC
8
bottom_labelLayer
10
19.4150359
20
18.2235977
40
0.162138
50
118.2553663
51
120.0658644
0
ARC
8
bottom_labelLayer
10
19.4152501
20
18.2214674
40
0.1641179
50
95.8633361
51
117.9691785
0
ARC
8
bottom_labelLayer
10
19.4208051
20
18.1813215
40
0.2046264
50
89.9196814
51
96.2622616
0
ARC
8
bottom_labelLayer
10
19.4225883
20
18.1605559
40
0.2253966
50
79.9359468
51
90.3803915
0
ARC
8
bottom_labelLayer
10
19.4376065
20
18.2418894
40
0.1426915
50
62.9726317
51
80.1664919
0
ARC
8
bottom_labelLayer
10
19.4533074
20
18.2741038
40
0.1068623
50
44.2286621
51
62.6227461
0
ARC
8
bottom_labelLayer
10
19.448635
20
18.2720385
40
0.1116653
50
19.5614111
51
43.3157272
0
ARC
8
bottom_labelLayer
10
19.3808122
20
18.2465658
40
0.184107
50
7.5044069
51
19.964215
0
ARC
8
bottom_labelLayer
10
19.2686106
20
18.2308099
40
0.2974069
50
359.7104519
51
7.6907127
0
ENDSEC
0
EOF